<svg width="400" height="400" viewBox="0 0 400 400" fill="none" xmlns="http://www.w3.org/2000/svg">
<path d="M0.321092 109.055C0.321092 138.797 8.18781 160.544 14.6899 179.972C21.8342 201.479 29.9418 217.15 35.9622 227.384C44.6318 222.666 53.7829 218.196 62.4523 213.479C42.7855 188.854 33.0724 162.303 28.818 147.751C23.1988 128.483 22.4764 116.41 22.4764 110.014C22.4764 63.4819 36.5241 42.4545 68.7939 42.4545H179.089V152.868L0 245.932V294.943L200.201 400V354.987L92.2336 302.459C68.7136 290.945 49.5284 282.95 26.3295 270.957V268.959C49.5284 256.966 68.7136 248.411 92.2336 237.458L200.281 184.929V179.652V0H66.6265C30.1826 0 0.321092 27.5035 0.321092 109.055Z" fill="#2F2F2F" fill-opacity="0.9"/>
<path d="M399.759 109.055C399.759 138.797 391.892 160.544 385.39 179.972C378.246 201.479 370.138 217.15 364.118 227.384C355.448 222.666 346.458 218.307 337.788 213.589C357.455 188.964 367.008 162.303 371.262 147.751C376.881 128.483 377.604 116.41 377.604 110.014C377.604 63.4819 363.556 42.4545 331.286 42.4545H220.991V152.868L400 245.932V294.943L199.799 400V354.987L307.847 302.459C331.367 290.945 350.552 282.95 373.751 270.957V268.959C350.552 256.966 331.367 248.411 307.847 237.458L199.799 184.929V179.652V0H333.373C369.817 0 399.759 27.5035 399.759 109.055Z" fill="#2F2F2F"/>
</svg>
