<svg width="1920" height="1052" viewBox="0 0 1920 1052" fill="none" xmlns="http://www.w3.org/2000/svg">
<path fill-rule="evenodd" clip-rule="evenodd" d="M40.0001 31L5.41495e-05 36V86V966L0 1016L40 1019.34C41.5227 1019.47 43.1033 1019.59 44.7396 1019.73L44.8888 1019.74H44.8898C86.2767 1023.09 163.138 1029.3 240 1026C280 1024.28 320 1020.14 360 1016C400 1011.86 440 1007.72 480 1006C560 1002.56 640 1009.44 720 1021C740.602 1023.98 761.204 1027.31 781.807 1030.64L781.819 1030.64C841.213 1040.24 900.606 1049.84 960 1051C1015.87 1052.09 1071.74 1046.02 1127.61 1039.95C1151.74 1037.32 1175.87 1034.7 1200 1032.66C1280 1026 1360 1026 1440 1029.34C1463.76 1030.3 1487.51 1031.58 1511.27 1032.86C1567.51 1035.88 1623.76 1038.91 1680 1037.66C1760 1036 1840 1026 1880 1021L1920 1016V966V86V36L1880 32.6562C1878.43 32.53 1876.8 32.3981 1875.11 32.2615C1833.72 28.914 1756.86 22.6973 1680 26C1640 27.7187 1600 31.8594 1560 36C1520 40.1406 1480 44.2812 1440 46C1360 49.4375 1280 42.5625 1200 31C1179.39 28.0218 1158.79 24.6911 1138.18 21.3604C1078.79 11.7602 1019.39 2.16001 960 0.999977C904.131 -0.0912194 848.262 5.98089 792.392 12.053C768.262 14.6756 744.131 17.2983 720 19.3437C640 26 560 26 480 22.6562C456.244 21.7004 432.487 20.4222 408.731 19.1439C352.487 16.1177 296.244 13.0914 240 14.3437C160 16 80.0001 26 40.0001 31Z" fill="white"/>
</svg>
