<svg width="733" height="747" viewBox="0 0 733 747" fill="none" xmlns="http://www.w3.org/2000/svg">
<circle cx="383" cy="388" r="349" stroke="url(#paint0_linear_806_502)" stroke-width="2"/>
<circle cx="383" cy="388" r="249" stroke="url(#paint1_linear_806_502)" stroke-width="2"/>
<circle cx="383" cy="388" r="149" stroke="url(#paint2_linear_806_502)" stroke-width="2"/>
<g filter="url(#filter0_d_806_502)">
<rect x="411" y="583" width="75" height="75" rx="15" fill="white"/>
<g clipPath="url(#clip0_806_502)">
<path d="M473.087 618.775C473.084 618.775 473.084 618.774 473.084 618.774L451.212 596.887C450.031 595.704 447.966 595.705 446.791 596.886L424.913 618.775C424.326 619.366 424 620.151 424 620.985C424 621.82 424.326 622.605 424.916 623.196L446.788 645.083C447.378 645.674 448.164 646 449 646C449.836 646 450.621 645.674 451.209 645.084L473.084 623.196C473.674 622.605 474 621.82 474 620.985C474 620.151 473.674 619.366 473.087 618.775Z" fill="#EF473B"/>
<path opacity="0.1" d="M473.335 622.437L451.233 644.554C450.638 645.15 449.845 645.479 449 645.479C448.155 645.479 447.362 645.15 446.766 644.552L424.665 622.437C424.406 622.179 424.209 621.878 424.056 621.558C424.17 622.174 424.463 622.743 424.916 623.196L446.789 645.083C447.379 645.674 448.164 646 449 646C449.836 646 450.622 645.674 451.21 645.084L473.085 623.196C473.537 622.743 473.83 622.174 473.944 621.558C473.791 621.878 473.594 622.179 473.335 622.437Z" fill="#010101"/>
<path d="M459.417 616.833C458.636 616.833 457.912 617.063 457.287 617.438L452.562 612.713C452.937 612.088 453.167 611.364 453.167 610.583C453.167 608.285 451.297 606.417 449 606.417C448.229 606.417 447.516 606.641 446.896 607.007L441.784 601.895L440.312 603.368L445.423 608.481C445.058 609.1 444.833 609.813 444.833 610.583C444.833 612.519 446.167 614.136 447.958 614.602V627.398C446.167 627.864 444.833 629.481 444.833 631.417C444.833 633.715 446.703 635.583 449 635.583C451.297 635.583 453.167 633.715 453.167 631.417C453.167 629.481 451.833 627.864 450.042 627.398V614.602C450.41 614.506 450.755 614.361 451.077 614.174L455.826 618.923C455.469 619.537 455.25 620.24 455.25 621C455.25 623.298 457.12 625.167 459.417 625.167C461.714 625.167 463.583 623.298 463.583 621C463.583 618.702 461.714 616.833 459.417 616.833Z" fill="white"/>
<path opacity="0.2" d="M424.913 619.296L446.791 597.407C447.966 596.226 450.031 596.225 451.212 597.408L473.084 619.295C473.084 619.295 473.084 619.296 473.087 619.296C473.612 619.825 473.914 620.511 473.975 621.245C473.982 621.158 474 621.073 474 620.985C474 620.151 473.674 619.366 473.087 618.775C473.084 618.775 473.084 618.774 473.084 618.774L451.212 596.887C450.031 595.704 447.966 595.705 446.791 596.886L424.913 618.775C424.326 619.366 424 620.151 424 620.985C424 621.073 424.018 621.158 424.025 621.245C424.087 620.511 424.388 619.825 424.913 619.296Z" fill="white"/>
<path d="M462.643 618.397C463.222 619.112 463.583 620.01 463.583 621C463.583 623.298 461.713 625.167 459.416 625.167C457.12 625.167 455.25 623.298 455.25 621C455.25 620.24 455.469 619.537 455.826 618.923L451.077 614.174C450.755 614.361 450.41 614.506 450.041 614.602V627.398C451.833 627.864 453.166 629.481 453.166 631.417C453.166 633.715 451.297 635.583 449 635.583C447.934 635.583 446.971 635.169 446.233 634.509L454.008 642.283L470.264 626.017L462.643 618.397ZM452.562 612.713L457.287 617.438C457.912 617.063 458.635 616.833 459.416 616.833C460.406 616.833 461.305 617.195 462.02 617.774L452.275 608.028L452.27 608.033C452.823 608.74 453.166 609.618 453.166 610.583C453.166 611.364 452.937 612.088 452.562 612.713Z" fill="url(#paint3_linear_806_502)"/>
<path d="M473.087 618.775C473.084 618.775 473.084 618.774 473.084 618.774L451.212 596.887C450.031 595.704 447.966 595.705 446.791 596.886L424.913 618.775C424.326 619.366 424 620.151 424 620.985C424 621.82 424.326 622.605 424.916 623.196L446.788 645.083C447.379 645.674 448.164 646 449 646C449.836 646 450.622 645.674 451.209 645.084L473.084 623.196C473.674 622.605 474 621.82 474 620.985C474 620.151 473.674 619.366 473.087 618.775Z" fill="url(#paint4_linear_806_502)"/>
</g>
</g>
<g filter="url(#filter1_d_806_502)">
<rect x="182" y="658" width="75" height="75" rx="15" fill="white"/>
<g clipPath="url(#clip1_806_502)">
<path d="M211.252 721C215.805 721 219.5 717.267 219.5 712.667V704.333H211.252C206.699 704.333 203.003 708.067 203.003 712.667C203.003 717.267 206.699 721 211.252 721Z" fill="#0ACF83"/>
<path d="M203.003 696C203.003 691.4 206.699 687.667 211.252 687.667H219.5V704.333H211.252C206.699 704.333 203.003 700.6 203.003 696Z" fill="#A259FF"/>
<path d="M203.002 679.333C203.002 674.733 206.698 671 211.251 671H219.499V687.667H211.251C206.698 687.667 203.002 683.933 203.002 679.333Z" fill="#F24E1E"/>
<path d="M219.5 671H227.748C232.301 671 235.997 674.733 235.997 679.333C235.997 683.933 232.301 687.667 227.748 687.667H219.5V671Z" fill="#FF7262"/>
<path d="M235.997 696C235.997 700.6 232.301 704.333 227.748 704.333C223.195 704.333 219.5 700.6 219.5 696C219.5 691.4 223.195 687.667 227.748 687.667C232.301 687.667 235.997 691.4 235.997 696Z" fill="#1ABCFE"/>
</g>
</g>
<g filter="url(#filter2_d_806_502)">
<rect x="233" y="134" width="75" height="75" rx="15" fill="white"/>
<path d="M275.646 172.008C275.646 173.243 275.155 174.428 274.282 175.302C273.409 176.175 272.225 176.666 270.99 176.667C269.754 176.667 268.569 176.176 267.696 175.302C266.822 174.429 266.331 173.244 266.331 172.008C266.331 170.773 266.822 169.589 267.695 168.715C268.568 167.842 269.752 167.351 270.988 167.35C272.223 167.35 273.408 167.841 274.281 168.714C275.155 169.588 275.646 170.773 275.646 172.008ZM281.163 149.738C278.358 149.738 274.69 151.738 270.979 155.2C267.271 151.756 263.6 149.779 260.798 149.779C259.944 149.779 259.167 149.973 258.494 150.358C255.629 152.01 254.988 157.158 256.467 163.619C250.125 165.577 246 168.708 246 172.008C246 175.321 250.146 178.46 256.506 180.404C255.04 186.89 255.694 192.046 258.565 193.696C259.231 194.085 260.002 194.269 260.86 194.269C263.663 194.269 267.333 192.269 271.044 188.802C274.752 192.248 278.423 194.225 281.225 194.225C282.079 194.225 282.856 194.038 283.529 193.652C286.392 192.002 287.035 186.854 285.556 180.392C291.875 178.45 296 175.313 296 172.008C296 168.696 291.854 165.556 285.494 163.608C286.96 157.129 286.306 151.969 283.435 150.317C282.773 149.933 282.002 149.74 281.16 149.738H281.163ZM281.152 152.008V152.021C281.621 152.021 281.998 152.113 282.315 152.285C283.702 153.081 284.304 156.108 283.835 160.002C283.723 160.96 283.54 161.971 283.315 163.002C281.315 162.51 279.135 162.133 276.842 161.89C275.467 160.004 274.04 158.292 272.602 156.792C275.919 153.708 279.033 152.017 281.154 152.01L281.152 152.008ZM260.798 152.05C262.906 152.05 266.035 153.733 269.36 156.8C267.931 158.3 266.506 160.002 265.152 161.888C262.846 162.131 260.665 162.508 258.667 163.008C258.433 161.988 258.26 161 258.138 160.05C257.658 156.158 258.25 153.133 259.625 152.327C260.021 152.14 260.458 152.063 260.798 152.052V152.05ZM270.969 158.404C271.917 159.379 272.865 160.471 273.802 161.663C272.885 161.621 271.948 161.592 271 161.592C270.042 161.592 269.094 161.613 268.167 161.663C269.083 160.471 270.031 159.379 270.969 158.402V158.404ZM271 163.875C272.542 163.875 274.077 163.946 275.587 164.069C276.433 165.281 277.258 166.575 278.052 167.944C278.827 169.277 279.531 170.631 280.173 171.998C279.531 173.363 278.827 174.727 278.063 176.06C277.271 177.435 276.452 178.744 275.604 179.956C274.088 180.088 272.55 180.16 271 180.16C269.458 180.16 267.923 180.088 266.413 179.967C265.567 178.754 264.742 177.458 263.948 176.092C263.173 174.758 262.469 173.404 261.827 172.038C262.458 170.669 263.173 169.302 263.937 167.967C264.729 166.592 265.548 165.288 266.396 164.075C267.913 163.942 269.45 163.871 271 163.871V163.875ZM263.427 164.404C262.927 165.19 262.427 165.994 261.96 166.821C261.492 167.633 261.054 168.45 260.637 169.267C260.085 167.9 259.617 166.538 259.229 165.21C260.563 164.898 261.969 164.621 263.427 164.406V164.404ZM278.552 164.404C280 164.619 281.396 164.883 282.731 165.21C282.356 166.527 281.888 167.881 281.356 169.238C280.94 168.425 280.502 167.606 280.023 166.792C279.554 165.975 279.054 165.179 278.554 164.404H278.552ZM284.933 165.81C285.942 166.123 286.9 166.471 287.798 166.848C291.406 168.39 293.74 170.406 293.74 172.006C293.729 173.606 291.396 175.631 287.788 177.163C286.913 177.538 285.954 177.875 284.965 178.19C284.381 176.194 283.619 174.115 282.673 171.981C283.61 169.863 284.36 167.794 284.933 165.806V165.81ZM257.027 165.819C257.606 167.819 258.371 169.896 259.319 172.027C258.381 174.146 257.627 176.215 257.056 178.202C256.048 177.89 255.09 177.54 254.202 177.16C250.594 175.625 248.26 173.606 248.26 172.006C248.26 170.406 250.594 168.377 254.202 166.848C255.077 166.473 256.035 166.135 257.027 165.819ZM281.356 174.735C281.908 176.104 282.377 177.469 282.765 178.794C281.431 179.121 280.023 179.398 278.565 179.606C279.065 178.825 279.565 178.019 280.033 177.194C280.502 176.381 280.94 175.552 281.358 174.735H281.356ZM260.637 174.777C261.054 175.594 261.492 176.408 261.971 177.225C262.45 178.038 262.94 178.833 263.44 179.606C261.992 179.394 260.596 179.127 259.26 178.802C259.635 177.49 260.106 176.131 260.635 174.775L260.637 174.777ZM283.333 181C283.567 182.027 283.75 183.017 283.863 183.965C284.342 187.856 283.75 190.881 282.375 191.69C282.069 191.877 281.671 191.956 281.202 191.956C279.094 191.956 275.965 190.275 272.64 187.206C274.069 185.706 275.494 184.006 276.848 182.123C279.154 181.877 281.335 181.498 283.333 180.998V181ZM258.688 181.021C260.688 181.508 262.867 181.885 265.16 182.129C266.535 184.015 267.963 185.727 269.4 187.225C266.077 190.315 262.958 192.006 260.838 192.006C260.379 191.996 259.992 191.902 259.685 191.731C258.298 190.94 257.696 187.91 258.165 184.017C258.277 183.058 258.46 182.05 258.685 181.021H258.688ZM268.188 182.354C269.104 182.396 270.042 182.425 270.99 182.425C271.948 182.425 272.896 182.404 273.823 182.354C272.906 183.546 271.958 184.635 271.021 185.615C270.073 184.635 269.125 183.546 268.188 182.354Z" fill="#61DAFB"/>
</g>
<g filter="url(#filter3_d_806_502)">
<rect x="443" y="446" width="75" height="75" rx="15" fill="white"/>
<rect x="456" y="459" width="50" height="50" rx="3" fill="#F7DF1E"/>
<path fill-rule="evenodd" clip-rule="evenodd" d="M491.883 481.209C489.079 481.898 487.246 484.022 487.067 486.791C486.939 488.758 487.564 490.553 488.815 491.809C489.905 492.905 490.866 493.462 494.263 494.966C496.679 496.037 497.282 496.655 497.211 497.992C497.179 498.584 497.125 498.749 496.854 499.086C496.678 499.304 496.265 499.621 495.935 499.791C494.816 500.367 492.8 500.261 491.611 499.564C490.972 499.19 490.225 498.474 489.829 497.858C489.649 497.577 489.486 497.347 489.467 497.347C489.407 497.347 485.831 499.443 485.737 499.533C485.688 499.58 485.769 499.822 485.916 500.071C487.373 502.533 490.01 504.081 493.15 504.315C497.102 504.61 500.149 503.25 501.393 500.637C501.836 499.707 502.066 498.437 501.987 497.351C501.83 495.168 501.057 493.697 499.415 492.461C498.346 491.655 497.438 491.165 495.26 490.218C492.779 489.139 492.211 488.758 491.872 487.948C491.567 487.219 491.707 486.329 492.218 485.747C492.794 485.091 494.326 484.894 495.277 485.354C495.732 485.575 496.296 486.111 496.771 486.775L496.986 487.077L498.774 485.936C499.757 485.308 500.562 484.741 500.563 484.676C500.566 484.501 499.695 483.35 499.186 482.856C497.84 481.55 496.22 480.985 493.863 481C493.09 481.005 492.426 481.075 491.883 481.209ZM478.354 489.871L478.325 498.545L478.096 498.974C477.628 499.849 476.86 500.223 475.718 500.133C474.649 500.048 473.89 499.492 473.194 498.284C473.045 498.027 472.911 497.799 472.896 497.778C472.88 497.757 471.997 498.268 470.934 498.912L469 500.085L469.279 500.565C470.273 502.278 471.612 503.381 473.43 503.986C474.197 504.241 474.403 504.263 476.034 504.268C477.422 504.273 477.949 504.234 478.474 504.089C480.596 503.503 482.008 502.18 482.695 500.134C483.121 498.866 483.18 497.389 483.147 488.909L483.117 481.253L480.75 481.225L478.383 481.197L478.354 489.871Z" fill="#2F2F2F"/>
</g>
<g filter="url(#filter4_d_806_502)">
<rect x="405" y="209" width="75" height="75" rx="15" fill="white"/>
<path d="M420.125 222H463.875L459.896 266.923L441.952 272L424.11 266.921L420.125 222ZM434.773 242.312L434.29 236.65L455.246 236.656L455.725 231.194L428.275 231.187L429.729 247.875H448.742L448.062 255.012L442 256.687L435.844 255L435.452 250.604H430.017L430.704 259.294L442 262.315L453.206 259.308L454.756 242.315H434.773V242.312Z" fill="#E34F26"/>
</g>
<path d="M324.328 386.438C324.344 387.094 324.531 387.688 324.891 388.219C325.266 388.734 325.75 389.227 326.344 389.695C326.953 390.164 327.641 390.625 328.406 391.078C329.172 391.516 329.953 391.984 330.75 392.484C331.562 392.969 332.352 393.5 333.117 394.078C333.883 394.656 334.57 395.312 335.18 396.047C335.789 396.781 336.281 397.609 336.656 398.531C337.031 399.453 337.234 400.5 337.266 401.672V401.859C337.266 403.141 337.109 404.258 336.797 405.211C336.484 406.164 336.07 406.984 335.555 407.672C335.039 408.359 334.438 408.93 333.75 409.383C333.062 409.82 332.336 410.172 331.57 410.438C330.82 410.703 330.055 410.891 329.273 411C328.508 411.109 327.781 411.172 327.094 411.188H326.859C325.531 411.188 324.367 411.055 323.367 410.789C322.367 410.523 321.508 410.172 320.789 409.734C320.07 409.281 319.469 408.766 318.984 408.188C318.516 407.609 318.141 407.016 317.859 406.406C317.578 405.781 317.375 405.164 317.25 404.555C317.125 403.945 317.062 403.375 317.062 402.844C317.062 402.297 317.156 401.82 317.344 401.414C317.531 401.008 317.773 400.68 318.07 400.43C318.383 400.164 318.734 399.969 319.125 399.844C319.531 399.719 319.953 399.656 320.391 399.656C320.797 399.656 321.211 399.719 321.633 399.844C322.07 399.969 322.461 400.164 322.805 400.43C323.164 400.68 323.453 401.008 323.672 401.414C323.906 401.805 324.031 402.266 324.047 402.797C324.078 403.969 324.344 404.773 324.844 405.211C325.344 405.633 326.062 405.844 327 405.844C327.469 405.828 327.898 405.773 328.289 405.68C328.695 405.57 329.039 405.391 329.32 405.141C329.602 404.875 329.82 404.531 329.977 404.109C330.148 403.672 330.234 403.125 330.234 402.469C330.234 401.656 330.047 400.922 329.672 400.266C329.312 399.609 328.836 399 328.242 398.438C327.648 397.875 326.969 397.344 326.203 396.844C325.438 396.328 324.656 395.82 323.859 395.32C323.062 394.805 322.281 394.273 321.516 393.727C320.766 393.164 320.086 392.555 319.477 391.898C318.867 391.242 318.375 390.516 318 389.719C317.641 388.922 317.453 388.016 317.438 387V386.625C317.453 384.953 317.672 383.562 318.094 382.453C318.531 381.344 319.164 380.461 319.992 379.805C320.836 379.148 321.867 378.688 323.086 378.422C324.305 378.141 325.703 378 327.281 378H327.891C329.328 378 330.547 378.156 331.547 378.469C332.547 378.781 333.375 379.18 334.031 379.664C334.703 380.148 335.227 380.695 335.602 381.305C335.992 381.914 336.281 382.516 336.469 383.109C336.656 383.703 336.773 384.258 336.82 384.773C336.867 385.289 336.891 385.703 336.891 386.016C336.891 386.484 336.797 386.914 336.609 387.305C336.438 387.68 336.195 388 335.883 388.266C335.586 388.531 335.227 388.742 334.805 388.898C334.398 389.039 333.953 389.109 333.469 389.109C333.094 389.109 332.719 389.039 332.344 388.898C331.969 388.742 331.633 388.547 331.336 388.312C331.039 388.078 330.797 387.812 330.609 387.516C330.422 387.203 330.328 386.891 330.328 386.578C330.328 385.297 330.094 384.406 329.625 383.906C329.172 383.406 328.5 383.156 327.609 383.156C327.188 383.156 326.773 383.18 326.367 383.227C325.977 383.273 325.625 383.406 325.312 383.625C325.016 383.828 324.773 384.148 324.586 384.586C324.414 385.023 324.328 385.641 324.328 386.438ZM342.047 383.531C342.047 382.859 342.078 382.203 342.141 381.562C342.203 380.922 342.352 380.352 342.586 379.852C342.82 379.352 343.172 378.953 343.641 378.656C344.109 378.344 344.75 378.188 345.562 378.188C346.391 378.188 347.047 378.344 347.531 378.656C348.016 378.953 348.375 379.352 348.609 379.852C348.859 380.352 349.016 380.922 349.078 381.562C349.141 382.203 349.172 382.859 349.172 383.531V391.969H351.844C352.359 390.625 352.875 389.305 353.391 388.008C353.609 387.461 353.836 386.898 354.07 386.32C354.305 385.727 354.531 385.148 354.75 384.586C354.984 384.023 355.203 383.484 355.406 382.969C355.625 382.438 355.828 381.969 356.016 381.562C356.203 381.125 356.398 380.703 356.602 380.297C356.82 379.891 357.07 379.531 357.352 379.219C357.633 378.906 357.945 378.656 358.289 378.469C358.648 378.281 359.062 378.188 359.531 378.188C359.984 378.188 360.43 378.258 360.867 378.398C361.305 378.539 361.695 378.75 362.039 379.031C362.383 379.312 362.656 379.656 362.859 380.062C363.078 380.469 363.188 380.938 363.188 381.469C363.188 381.875 363.117 382.359 362.977 382.922C362.852 383.469 362.672 384.016 362.438 384.562L358.219 394.547C359.031 394.844 359.75 395.328 360.375 396C360.641 396.281 360.898 396.625 361.148 397.031C361.414 397.422 361.648 397.883 361.852 398.414C362.055 398.945 362.219 399.555 362.344 400.242C362.469 400.914 362.531 401.672 362.531 402.516V405.844C362.531 406.016 362.594 406.156 362.719 406.266C362.844 406.375 362.969 406.5 363.094 406.641C363.406 407 363.586 407.312 363.633 407.578C363.68 407.844 363.703 408.062 363.703 408.234C363.703 408.797 363.594 409.266 363.375 409.641C363.172 410.016 362.891 410.32 362.531 410.555C362.188 410.789 361.781 410.953 361.312 411.047C360.859 411.141 360.391 411.188 359.906 411.188C359.391 411.188 358.867 411.109 358.336 410.953C357.805 410.797 357.32 410.562 356.883 410.25C356.445 409.922 356.086 409.516 355.805 409.031C355.539 408.547 355.406 407.984 355.406 407.344V402.516C355.406 401.844 355.359 401.219 355.266 400.641C355.172 400.047 354.992 399.539 354.727 399.117C354.461 398.68 354.094 398.344 353.625 398.109C353.156 397.859 352.547 397.734 351.797 397.734H349.172V405.609C349.172 406.297 349.141 406.961 349.078 407.602C349.016 408.242 348.859 408.82 348.609 409.336C348.375 409.836 348.016 410.242 347.531 410.555C347.047 410.852 346.391 411 345.562 411C344.75 411 344.109 410.852 343.641 410.555C343.172 410.242 342.82 409.836 342.586 409.336C342.352 408.82 342.203 408.242 342.141 407.602C342.078 406.961 342.047 406.297 342.047 405.609V383.531ZM369.469 383.578C369.469 382.906 369.5 382.25 369.562 381.609C369.641 380.969 369.805 380.398 370.055 379.898C370.32 379.383 370.711 378.969 371.227 378.656C371.742 378.344 372.453 378.188 373.359 378.188C374.266 378.188 374.977 378.344 375.492 378.656C376.008 378.969 376.391 379.383 376.641 379.898C376.906 380.398 377.07 380.969 377.133 381.609C377.211 382.25 377.25 382.906 377.25 383.578V405.609C377.25 406.297 377.219 406.961 377.156 407.602C377.094 408.242 376.93 408.82 376.664 409.336C376.414 409.836 376.023 410.242 375.492 410.555C374.977 410.852 374.266 411 373.359 411C372.453 411 371.742 410.852 371.227 410.555C370.711 410.242 370.32 409.836 370.055 409.336C369.805 408.82 369.641 408.242 369.562 407.602C369.5 406.961 369.469 406.297 369.469 405.609V383.578ZM385.312 383.578C385.312 382.906 385.344 382.25 385.406 381.609C385.469 380.969 385.617 380.398 385.852 379.898C386.102 379.383 386.461 378.969 386.93 378.656C387.398 378.344 388.047 378.188 388.875 378.188C389.766 378.188 390.461 378.344 390.961 378.656C391.461 378.969 391.828 379.383 392.062 379.898C392.297 380.398 392.438 380.969 392.484 381.609C392.547 382.25 392.578 382.906 392.578 383.578V404.109H397.172C397.812 404.109 398.445 404.141 399.07 404.203C399.695 404.266 400.25 404.414 400.734 404.648C401.234 404.883 401.633 405.227 401.93 405.68C402.227 406.133 402.375 406.75 402.375 407.531C402.375 408.328 402.227 408.961 401.93 409.43C401.633 409.883 401.234 410.227 400.734 410.461C400.25 410.695 399.695 410.844 399.07 410.906C398.445 410.969 397.812 411 397.172 411H390.516C389.688 411 388.953 410.969 388.312 410.906C387.672 410.844 387.125 410.695 386.672 410.461C386.234 410.227 385.898 409.883 385.664 409.43C385.43 408.961 385.312 408.328 385.312 407.531V383.578ZM408 383.578C408 382.906 408.031 382.25 408.094 381.609C408.156 380.969 408.305 380.398 408.539 379.898C408.789 379.383 409.148 378.969 409.617 378.656C410.086 378.344 410.734 378.188 411.562 378.188C412.453 378.188 413.148 378.344 413.648 378.656C414.148 378.969 414.516 379.383 414.75 379.898C414.984 380.398 415.125 380.969 415.172 381.609C415.234 382.25 415.266 382.906 415.266 383.578V404.109H419.859C420.5 404.109 421.133 404.141 421.758 404.203C422.383 404.266 422.938 404.414 423.422 404.648C423.922 404.883 424.32 405.227 424.617 405.68C424.914 406.133 425.062 406.75 425.062 407.531C425.062 408.328 424.914 408.961 424.617 409.43C424.32 409.883 423.922 410.227 423.422 410.461C422.938 410.695 422.383 410.844 421.758 410.906C421.133 410.969 420.5 411 419.859 411H413.203C412.375 411 411.641 410.969 411 410.906C410.359 410.844 409.812 410.695 409.359 410.461C408.922 410.227 408.586 409.883 408.352 409.43C408.117 408.961 408 408.328 408 407.531V383.578ZM435.844 386.438C435.859 387.094 436.047 387.688 436.406 388.219C436.781 388.734 437.266 389.227 437.859 389.695C438.469 390.164 439.156 390.625 439.922 391.078C440.688 391.516 441.469 391.984 442.266 392.484C443.078 392.969 443.867 393.5 444.633 394.078C445.398 394.656 446.086 395.312 446.695 396.047C447.305 396.781 447.797 397.609 448.172 398.531C448.547 399.453 448.75 400.5 448.781 401.672V401.859C448.781 403.141 448.625 404.258 448.312 405.211C448 406.164 447.586 406.984 447.07 407.672C446.555 408.359 445.953 408.93 445.266 409.383C444.578 409.82 443.852 410.172 443.086 410.438C442.336 410.703 441.57 410.891 440.789 411C440.023 411.109 439.297 411.172 438.609 411.188H438.375C437.047 411.188 435.883 411.055 434.883 410.789C433.883 410.523 433.023 410.172 432.305 409.734C431.586 409.281 430.984 408.766 430.5 408.188C430.031 407.609 429.656 407.016 429.375 406.406C429.094 405.781 428.891 405.164 428.766 404.555C428.641 403.945 428.578 403.375 428.578 402.844C428.578 402.297 428.672 401.82 428.859 401.414C429.047 401.008 429.289 400.68 429.586 400.43C429.898 400.164 430.25 399.969 430.641 399.844C431.047 399.719 431.469 399.656 431.906 399.656C432.312 399.656 432.727 399.719 433.148 399.844C433.586 399.969 433.977 400.164 434.32 400.43C434.68 400.68 434.969 401.008 435.188 401.414C435.422 401.805 435.547 402.266 435.562 402.797C435.594 403.969 435.859 404.773 436.359 405.211C436.859 405.633 437.578 405.844 438.516 405.844C438.984 405.828 439.414 405.773 439.805 405.68C440.211 405.57 440.555 405.391 440.836 405.141C441.117 404.875 441.336 404.531 441.492 404.109C441.664 403.672 441.75 403.125 441.75 402.469C441.75 401.656 441.562 400.922 441.188 400.266C440.828 399.609 440.352 399 439.758 398.438C439.164 397.875 438.484 397.344 437.719 396.844C436.953 396.328 436.172 395.82 435.375 395.32C434.578 394.805 433.797 394.273 433.031 393.727C432.281 393.164 431.602 392.555 430.992 391.898C430.383 391.242 429.891 390.516 429.516 389.719C429.156 388.922 428.969 388.016 428.953 387V386.625C428.969 384.953 429.188 383.562 429.609 382.453C430.047 381.344 430.68 380.461 431.508 379.805C432.352 379.148 433.383 378.688 434.602 378.422C435.82 378.141 437.219 378 438.797 378H439.406C440.844 378 442.062 378.156 443.062 378.469C444.062 378.781 444.891 379.18 445.547 379.664C446.219 380.148 446.742 380.695 447.117 381.305C447.508 381.914 447.797 382.516 447.984 383.109C448.172 383.703 448.289 384.258 448.336 384.773C448.383 385.289 448.406 385.703 448.406 386.016C448.406 386.484 448.312 386.914 448.125 387.305C447.953 387.68 447.711 388 447.398 388.266C447.102 388.531 446.742 388.742 446.32 388.898C445.914 389.039 445.469 389.109 444.984 389.109C444.609 389.109 444.234 389.039 443.859 388.898C443.484 388.742 443.148 388.547 442.852 388.312C442.555 388.078 442.312 387.812 442.125 387.516C441.938 387.203 441.844 386.891 441.844 386.578C441.844 385.297 441.609 384.406 441.141 383.906C440.688 383.406 440.016 383.156 439.125 383.156C438.703 383.156 438.289 383.18 437.883 383.227C437.492 383.273 437.141 383.406 436.828 383.625C436.531 383.828 436.289 384.148 436.102 384.586C435.93 385.023 435.844 385.641 435.844 386.438Z" fill="#27CA54"/>
<g filter="url(#filter5_d_806_502)">
<rect x="10" y="222" width="75" height="75" rx="15" fill="white"/>
<path fill-rule="evenodd" clip-rule="evenodd" d="M64.1431 267.781C64.3544 267.668 64.53 267.504 64.6524 267.306C64.7747 267.109 64.8396 266.885 64.8404 266.656L64.8654 259.121C64.8661 258.893 64.931 258.669 65.0533 258.471C65.1757 258.274 65.3513 258.11 65.5626 257.996L69.9195 255.65C70.1307 255.536 70.37 255.476 70.6135 255.477C70.857 255.477 71.0962 255.538 71.3069 255.652C71.5177 255.766 71.6926 255.931 71.8143 256.128C71.936 256.326 72 256.55 72.0001 256.779V270.478C72 270.707 71.9355 270.932 71.8131 271.13C71.6907 271.328 71.5147 271.493 71.3029 271.607L54.8598 280.461C54.6498 280.574 54.4119 280.634 54.1697 280.634C53.9275 280.634 53.6895 280.575 53.4792 280.462L40.5751 273.543C40.3625 273.429 40.1858 273.265 40.0629 273.066C39.9399 272.868 39.8752 272.642 39.8751 272.413V265.505C39.8751 265.497 39.8848 265.492 39.8931 265.496C39.9001 265.5 39.9098 265.496 39.9098 265.487V265.479C39.9098 265.474 39.9126 265.469 39.9181 265.466L50.5459 259.742C50.5556 259.737 50.5515 259.723 50.5404 259.723C50.5374 259.723 50.5346 259.722 50.5325 259.72C50.5304 259.718 50.5292 259.715 50.5292 259.712L50.5501 252.94C50.551 252.711 50.4876 252.486 50.3661 252.287C50.2446 252.089 50.0693 251.923 49.858 251.809C49.6467 251.694 49.4068 251.633 49.1626 251.633C48.9183 251.633 48.6783 251.693 48.4667 251.807L40.5681 256.074C40.3573 256.188 40.1183 256.248 39.8751 256.248C39.6318 256.248 39.3928 256.188 39.182 256.074L31.2584 251.797C31.0473 251.683 30.808 251.623 30.5644 251.623C30.3208 251.623 30.0815 251.684 29.8706 251.798C29.6597 251.912 29.4845 252.076 29.3627 252.274C29.2408 252.472 29.1766 252.696 29.1765 252.924V265.164C29.1766 265.392 29.1129 265.616 28.9915 265.814C28.8702 266.012 28.6956 266.176 28.4852 266.291C28.2748 266.405 28.036 266.466 27.7926 266.467C27.5493 266.468 27.31 266.409 27.0987 266.296L22.7015 263.939C22.4885 263.825 22.3115 263.66 22.1886 263.461C22.0656 263.262 22.0011 263.036 22.0015 262.806L22.0404 241.413C22.0409 241.185 22.1053 240.961 22.2272 240.763C22.349 240.566 22.524 240.402 22.7347 240.288C22.9454 240.174 23.1843 240.114 23.4276 240.114C23.6709 240.113 23.91 240.173 24.1209 240.286L39.1834 248.397C39.3939 248.51 39.6324 248.57 39.8751 248.57C40.1178 248.57 40.3563 248.51 40.5667 248.397L55.6251 240.286C55.8363 240.173 56.0758 240.113 56.3194 240.114C56.5631 240.114 56.8023 240.174 57.0131 240.289C57.2239 240.404 57.3988 240.568 57.5204 240.766C57.6419 240.964 57.7058 241.188 57.7056 241.417V262.815C57.7057 263.044 57.6415 263.269 57.5193 263.467C57.3971 263.665 57.2214 263.83 57.0098 263.944L49.1237 268.202C48.9119 268.316 48.736 268.481 48.614 268.68C48.4919 268.878 48.4279 269.104 48.4285 269.333C48.429 269.562 48.4941 269.787 48.6172 269.985C48.7402 270.183 48.9169 270.347 49.1292 270.461L53.4792 272.783C53.6895 272.895 53.9273 272.954 54.1692 272.953C54.4111 272.953 54.6487 272.893 54.8584 272.78L64.1431 267.781V267.781ZM65.0556 248.586C65.0558 248.816 65.1212 249.042 65.245 249.241C65.3687 249.44 65.5466 249.605 65.7603 249.718C65.9741 249.831 66.2161 249.89 66.4617 249.887C66.7073 249.884 66.9477 249.82 67.1584 249.702L71.3251 247.358C71.5308 247.243 71.701 247.079 71.8193 246.883C71.9376 246.688 71.9999 246.467 72.0001 246.242V241.466C71.9996 241.236 71.9341 241.01 71.8102 240.811C71.6863 240.613 71.5085 240.448 71.2948 240.335C71.081 240.222 70.8391 240.164 70.5936 240.167C70.3482 240.169 70.1079 240.233 69.8973 240.352L65.7306 242.695C65.5249 242.811 65.3547 242.974 65.2364 243.17C65.1181 243.365 65.0558 243.586 65.0556 243.811V248.587V248.586Z" fill="#007FFF"/>
</g>
<g filter="url(#filter6_d_806_502)">
<rect x="621" y="134" width="75" height="75" rx="15" fill="white"/>
<g clipPath="url(#clip2_806_502)">
<path d="M676.027 175.724C674.279 175.737 672.766 176.297 671.496 177.13C671.027 175.893 670.559 174.813 670.481 174.005C670.393 173.068 670.285 172.495 670.393 171.375C670.5 170.255 670.988 168.667 670.988 168.536C670.979 168.419 670.881 167.846 669.875 167.833C668.869 167.82 668 168.094 667.902 168.445C667.805 168.797 667.609 169.604 667.482 170.438C667.307 171.661 665.471 175.997 664.426 178.276C664.084 177.391 663.791 176.609 663.732 175.984C663.645 175.047 663.537 174.474 663.645 173.354C663.752 172.234 664.24 170.646 664.24 170.516C664.231 170.398 664.133 169.826 663.127 169.813C662.121 169.8 661.252 170.073 661.154 170.425C661.057 170.776 660.949 171.609 660.734 172.417C660.529 173.224 658.088 180.464 657.453 182.352C657.131 183.315 656.848 184.083 656.643 184.604C656.438 185.125 656.633 184.643 656.613 184.695C656.438 185.138 656.34 185.385 656.34 185.385V185.398C656.203 185.724 656.057 186.036 655.988 186.036C655.94 186.036 655.842 185.164 656.008 183.966C656.369 181.453 657.248 177.534 657.238 177.391C657.238 177.326 657.404 176.635 656.672 176.284C655.959 175.932 655.705 176.518 655.647 176.518C655.588 176.518 655.539 176.727 655.539 176.727C655.539 176.727 656.33 172.313 654.025 172.313C652.58 172.313 650.588 174.409 649.602 176.323C648.977 176.779 647.649 177.742 646.242 178.771C645.705 179.161 645.149 179.578 644.621 179.956L644.514 179.8C641.721 175.828 636.555 173.016 636.77 167.677C636.848 165.737 637.356 160.62 646.691 154.422C654.338 149.344 660.461 150.737 661.525 153.836C663.039 158.263 658.254 166.492 650.305 167.677C647.277 168.133 645.686 166.57 645.285 165.984C644.865 165.372 644.807 165.346 644.65 165.464C644.397 165.646 644.553 166.193 644.65 166.518C644.885 167.339 645.861 168.797 647.522 169.526C648.977 170.164 652.531 170.516 656.828 168.302C661.643 165.815 665.402 158.914 664.299 153.146C663.176 147.273 655.871 145.346 648.967 148.615C644.856 150.568 640.402 153.615 637.199 157.612C633.391 162.352 632.785 166.492 633.039 168.211C633.928 174.344 640.266 178.341 642.805 181.297C642.678 181.388 642.561 181.479 642.453 181.557C641.184 182.391 636.35 185.763 635.139 189.331C633.772 193.367 635.354 196.271 636.408 196.661C639.67 197.872 643.01 195.698 644.816 192.117C646.613 188.537 646.399 183.888 645.568 181.766L645.539 181.688L646.535 180.906C647.18 180.398 647.815 179.93 648.371 179.526C648.059 180.659 647.834 182 647.717 183.953C647.58 186.245 648.283 189.214 649.211 190.385C649.621 190.893 650.109 190.906 650.412 190.906C651.486 190.906 651.975 189.721 652.512 188.302C653.176 186.57 653.762 184.565 653.762 184.565C653.762 184.565 653.029 189.995 655.031 189.995C655.764 189.995 656.496 188.732 656.828 188.081V188.094C656.828 188.094 656.848 188.055 656.887 187.964C656.965 187.807 657.004 187.716 657.004 187.716V187.69C657.297 187.013 657.951 185.464 658.928 182.898C660.188 179.591 661.399 175.451 661.399 175.451C661.399 175.451 661.516 176.466 661.877 178.133C662.092 179.122 662.561 180.203 662.922 181.258C662.629 181.805 662.453 182.117 662.453 182.117L662.463 182.13C662.229 182.547 661.965 182.99 661.691 183.432C660.695 185.021 659.504 186.831 659.348 187.352C659.162 187.964 659.201 188.419 659.563 188.784C659.826 189.044 660.295 189.096 660.793 189.044C661.691 188.966 662.316 188.667 662.629 188.484C663.117 188.25 663.674 187.898 664.211 187.378C665.188 186.414 665.783 185.047 665.725 183.224C665.695 182.221 665.451 181.232 665.149 180.294C665.236 180.125 665.324 179.956 665.412 179.773C666.955 176.766 668.147 173.458 668.147 173.458C668.147 173.458 668.264 174.474 668.625 176.141C668.811 176.987 669.182 177.911 669.514 178.823C668.068 180.398 667.16 182.221 666.848 183.419C666.272 185.633 666.721 186.635 667.57 186.87C667.951 186.974 668.498 186.74 668.908 186.505C669.416 186.284 670.031 185.906 670.598 185.346C671.574 184.383 672.512 183.042 672.463 181.232C672.434 180.398 672.268 179.578 672.043 178.797C673.274 178.12 674.865 177.729 676.887 178.055C681.232 178.732 682.092 182.352 681.926 183.862C681.76 185.372 680.852 186.206 680.549 186.466C680.246 186.714 680.149 186.805 680.178 186.987C680.217 187.26 680.354 187.247 680.617 187.195C680.979 187.117 682.902 185.958 682.981 183.172C683.098 179.591 680.549 175.685 676.027 175.724V175.724ZM642.512 190.789C641.076 192.885 639.055 193.68 638.195 193.003C637.268 192.286 637.629 189.201 639.397 186.974C640.471 185.62 641.867 184.37 642.785 183.602C642.99 183.432 643.303 183.185 643.674 182.885C643.732 182.833 643.772 182.807 643.772 182.807C643.84 182.755 643.918 182.69 643.996 182.625C644.65 185.802 644.025 188.589 642.512 190.789V190.789ZM653.01 181.271C652.512 182.898 651.457 187.078 650.822 186.844C650.275 186.648 649.943 183.484 650.715 180.359C651.106 178.784 651.936 176.909 652.424 176.18C653.215 175.008 654.074 174.617 654.289 175.099C654.543 175.724 653.322 180.255 653.01 181.271ZM661.672 186.792C661.457 186.935 661.262 187.039 661.174 186.961C661.106 186.909 661.262 186.714 661.262 186.714C661.262 186.714 662.346 185.164 662.775 184.448C663.02 184.031 663.313 183.55 663.625 183.003V183.159C663.625 185.034 662.277 186.284 661.672 186.792V186.792ZM668.352 184.76C668.195 184.604 668.215 184.122 668.742 182.612C668.947 182.013 669.416 181.01 670.227 180.06C670.324 180.451 670.383 180.828 670.373 181.18C670.363 183.523 669.113 184.396 668.352 184.76Z" fill="#CF649A"/>
</g>
</g>
<g filter="url(#filter7_d_806_502)">
<rect x="593" y="339" width="75" height="75" rx="15" fill="white"/>
<path d="M635.781 355.906L630 365.828L624.219 355.906H605L630 398.875L655 355.906H635.781Z" fill="#42B883"/>
<path d="M635.781 355.906L630 365.828L624.219 355.906H615L630 381.688L645 355.906H635.781Z" fill="#35495E"/>
</g>
<g filter="url(#filter8_d_806_502)">
<rect x="133" y="493" width="75" height="75" rx="15" fill="white"/>
<g clipPath="url(#clip3_806_502)">
<path d="M160.199 548.306C160.162 548.24 160.129 548.172 160.1 548.103C159.9 547.64 159.839 547.13 159.923 546.633H148.103L165.669 515.72L171.436 525.858L173.109 522.899L168.081 514.042C167.84 513.589 167.49 513.203 167.061 512.92C166.632 512.637 166.14 512.466 165.628 512.422C165.117 512.446 164.623 512.612 164.202 512.902C163.781 513.192 163.45 513.595 163.247 514.063L145.451 545.352C145.185 545.794 145.032 546.294 145.004 546.809C144.977 547.324 145.077 547.838 145.295 548.305C145.569 548.737 145.958 549.083 146.418 549.305C146.878 549.527 147.391 549.616 147.9 549.561H162.804C162.296 549.617 161.782 549.528 161.322 549.306C160.861 549.085 160.473 548.738 160.199 548.306V548.306Z" fill="#00C492"/>
<path d="M194.468 545.352L179.844 519.591C179.605 519.132 179.253 518.742 178.822 518.455C178.392 518.168 177.896 517.994 177.38 517.95C176.87 517.972 176.376 518.137 175.955 518.426C175.534 518.715 175.203 519.117 174.999 519.585L173.108 522.899L174.791 525.858L177.395 521.247L191.863 546.633H186.361C186.432 547.053 186.392 547.484 186.247 547.884C186.216 547.972 186.178 548.057 186.132 548.139L186.085 548.233C185.786 548.655 185.388 548.997 184.926 549.228C184.463 549.46 183.951 549.574 183.434 549.561H192.04C192.557 549.575 193.07 549.461 193.532 549.229C193.995 548.997 194.393 548.655 194.692 548.233C194.927 547.78 195.031 547.27 194.992 546.76C194.952 546.251 194.77 545.763 194.468 545.352Z" fill="#008776"/>
<path d="M186.085 548.233L186.132 548.139C186.178 548.058 186.216 547.972 186.247 547.884C186.393 547.484 186.432 547.053 186.362 546.634C186.281 546.181 186.118 545.747 185.882 545.352L174.802 525.858L173.109 522.899L171.426 525.858L160.351 545.353C160.136 545.752 159.991 546.186 159.924 546.634C159.834 547.129 159.891 547.639 160.085 548.103C160.114 548.173 160.147 548.241 160.184 548.306C160.458 548.738 160.847 549.084 161.307 549.306C161.768 549.528 162.281 549.616 162.789 549.562H183.418C183.938 549.577 184.453 549.464 184.919 549.232C185.384 549 185.785 548.657 186.085 548.233H186.085ZM173.109 528.817L183.236 546.634H162.986L173.109 528.817Z" fill="#2D4A5D"/>
</g>
</g>
<g filter="url(#filter9_d_806_502)">
<rect x="427" y="6" width="75" height="75" rx="15" fill="white"/>
<path d="M464 64.7143C475.44 64.7143 484.714 55.4402 484.714 44.0001C484.714 32.5599 475.44 23.2858 464 23.2858C452.56 23.2858 443.286 32.5599 443.286 44.0001C443.286 55.4402 452.56 64.7143 464 64.7143Z" fill="#222222" stroke="#ECEDEE" stroke-width="2"/>
<path d="M457.312 63.7454L484.53 48.0311" stroke="#ECEDEE"/>
<path d="M443.741 40.2391L470.959 24.5249" stroke="#ECEDEE"/>
<path d="M451.362 60.5825L476.105 46.2968" stroke="#ECEDEE" stroke-linecap="round" stroke-linejoin="round"/>
<path d="M452.166 41.9735L476.909 27.6879" stroke="#ECEDEE" stroke-linecap="round"/>
<path d="M457.905 39.3281L471.157 49.1538" stroke="#ECEDEE" stroke-linecap="round" stroke-linejoin="round"/>
<path d="M462.854 36.4717L476.105 46.2968" stroke="#ECEDEE" stroke-linecap="round" stroke-linejoin="round"/>
<path d="M452.166 41.9735L466.208 52.0111" stroke="#ECEDEE" stroke-linecap="round" stroke-linejoin="round"/>
</g>
<g filter="url(#filter10_d_806_502)">
<rect x="198" y="374" width="75" height="75" rx="15" fill="white"/>
<path d="M213.125 387H256.875L252.896 431.923L234.952 437L217.108 431.921L213.125 387ZM248.729 396.194L221.271 396.187L221.715 401.65L242.808 401.654L242.277 407.312H228.444L228.944 412.673H241.823L241.06 420.012L234.998 421.687L228.84 420L228.448 415.604H223.01L223.615 423.635L235 427.183L246.194 423.996L248.729 396.196V396.194Z" fill="#0074BE"/>
</g>
<defs>
<filter id="filter0_d_806_502" x="401" y="577" width="95" height="95" filterUnits="userSpaceOnUse" color-interpolation-filters="sRGB">
<feFlood flood-opacity="0" result="BackgroundImageFix"/>
<feColorMatrix in="SourceAlpha" type="matrix" values="0 0 0 0 0 0 0 0 0 0 0 0 0 0 0 0 0 0 127 0" result="hardAlpha"/>
<feOffset dy="4"/>
<feGaussianBlur stdDeviation="5"/>
<feComposite in2="hardAlpha" operator="out"/>
<feColorMatrix type="matrix" values="0 0 0 0 0 0 0 0 0 0 0 0 0 0 0 0 0 0 0.08 0"/>
<feBlend mode="normal" in2="BackgroundImageFix" result="effect1_dropShadow_806_502"/>
<feBlend mode="normal" in="SourceGraphic" in2="effect1_dropShadow_806_502" result="shape"/>
</filter>
<filter id="filter1_d_806_502" x="172" y="652" width="95" height="95" filterUnits="userSpaceOnUse" color-interpolation-filters="sRGB">
<feFlood flood-opacity="0" result="BackgroundImageFix"/>
<feColorMatrix in="SourceAlpha" type="matrix" values="0 0 0 0 0 0 0 0 0 0 0 0 0 0 0 0 0 0 127 0" result="hardAlpha"/>
<feOffset dy="4"/>
<feGaussianBlur stdDeviation="5"/>
<feComposite in2="hardAlpha" operator="out"/>
<feColorMatrix type="matrix" values="0 0 0 0 0 0 0 0 0 0 0 0 0 0 0 0 0 0 0.08 0"/>
<feBlend mode="normal" in2="BackgroundImageFix" result="effect1_dropShadow_806_502"/>
<feBlend mode="normal" in="SourceGraphic" in2="effect1_dropShadow_806_502" result="shape"/>
</filter>
<filter id="filter2_d_806_502" x="223" y="128" width="95" height="95" filterUnits="userSpaceOnUse" color-interpolation-filters="sRGB">
<feFlood flood-opacity="0" result="BackgroundImageFix"/>
<feColorMatrix in="SourceAlpha" type="matrix" values="0 0 0 0 0 0 0 0 0 0 0 0 0 0 0 0 0 0 127 0" result="hardAlpha"/>
<feOffset dy="4"/>
<feGaussianBlur stdDeviation="5"/>
<feComposite in2="hardAlpha" operator="out"/>
<feColorMatrix type="matrix" values="0 0 0 0 0 0 0 0 0 0 0 0 0 0 0 0 0 0 0.08 0"/>
<feBlend mode="normal" in2="BackgroundImageFix" result="effect1_dropShadow_806_502"/>
<feBlend mode="normal" in="SourceGraphic" in2="effect1_dropShadow_806_502" result="shape"/>
</filter>
<filter id="filter3_d_806_502" x="433" y="440" width="95" height="95" filterUnits="userSpaceOnUse" color-interpolation-filters="sRGB">
<feFlood flood-opacity="0" result="BackgroundImageFix"/>
<feColorMatrix in="SourceAlpha" type="matrix" values="0 0 0 0 0 0 0 0 0 0 0 0 0 0 0 0 0 0 127 0" result="hardAlpha"/>
<feOffset dy="4"/>
<feGaussianBlur stdDeviation="5"/>
<feComposite in2="hardAlpha" operator="out"/>
<feColorMatrix type="matrix" values="0 0 0 0 0 0 0 0 0 0 0 0 0 0 0 0 0 0 0.08 0"/>
<feBlend mode="normal" in2="BackgroundImageFix" result="effect1_dropShadow_806_502"/>
<feBlend mode="normal" in="SourceGraphic" in2="effect1_dropShadow_806_502" result="shape"/>
</filter>
<filter id="filter4_d_806_502" x="395" y="203" width="95" height="95" filterUnits="userSpaceOnUse" color-interpolation-filters="sRGB">
<feFlood flood-opacity="0" result="BackgroundImageFix"/>
<feColorMatrix in="SourceAlpha" type="matrix" values="0 0 0 0 0 0 0 0 0 0 0 0 0 0 0 0 0 0 127 0" result="hardAlpha"/>
<feOffset dy="4"/>
<feGaussianBlur stdDeviation="5"/>
<feComposite in2="hardAlpha" operator="out"/>
<feColorMatrix type="matrix" values="0 0 0 0 0 0 0 0 0 0 0 0 0 0 0 0 0 0 0.08 0"/>
<feBlend mode="normal" in2="BackgroundImageFix" result="effect1_dropShadow_806_502"/>
<feBlend mode="normal" in="SourceGraphic" in2="effect1_dropShadow_806_502" result="shape"/>
</filter>
<filter id="filter5_d_806_502" x="0" y="216" width="95" height="95" filterUnits="userSpaceOnUse" color-interpolation-filters="sRGB">
<feFlood flood-opacity="0" result="BackgroundImageFix"/>
<feColorMatrix in="SourceAlpha" type="matrix" values="0 0 0 0 0 0 0 0 0 0 0 0 0 0 0 0 0 0 127 0" result="hardAlpha"/>
<feOffset dy="4"/>
<feGaussianBlur stdDeviation="5"/>
<feComposite in2="hardAlpha" operator="out"/>
<feColorMatrix type="matrix" values="0 0 0 0 0 0 0 0 0 0 0 0 0 0 0 0 0 0 0.08 0"/>
<feBlend mode="normal" in2="BackgroundImageFix" result="effect1_dropShadow_806_502"/>
<feBlend mode="normal" in="SourceGraphic" in2="effect1_dropShadow_806_502" result="shape"/>
</filter>
<filter id="filter6_d_806_502" x="611" y="128" width="95" height="95" filterUnits="userSpaceOnUse" color-interpolation-filters="sRGB">
<feFlood flood-opacity="0" result="BackgroundImageFix"/>
<feColorMatrix in="SourceAlpha" type="matrix" values="0 0 0 0 0 0 0 0 0 0 0 0 0 0 0 0 0 0 127 0" result="hardAlpha"/>
<feOffset dy="4"/>
<feGaussianBlur stdDeviation="5"/>
<feComposite in2="hardAlpha" operator="out"/>
<feColorMatrix type="matrix" values="0 0 0 0 0 0 0 0 0 0 0 0 0 0 0 0 0 0 0.08 0"/>
<feBlend mode="normal" in2="BackgroundImageFix" result="effect1_dropShadow_806_502"/>
<feBlend mode="normal" in="SourceGraphic" in2="effect1_dropShadow_806_502" result="shape"/>
</filter>
<filter id="filter7_d_806_502" x="583" y="333" width="95" height="95" filterUnits="userSpaceOnUse" color-interpolation-filters="sRGB">
<feFlood flood-opacity="0" result="BackgroundImageFix"/>
<feColorMatrix in="SourceAlpha" type="matrix" values="0 0 0 0 0 0 0 0 0 0 0 0 0 0 0 0 0 0 127 0" result="hardAlpha"/>
<feOffset dy="4"/>
<feGaussianBlur stdDeviation="5"/>
<feComposite in2="hardAlpha" operator="out"/>
<feColorMatrix type="matrix" values="0 0 0 0 0 0 0 0 0 0 0 0 0 0 0 0 0 0 0.08 0"/>
<feBlend mode="normal" in2="BackgroundImageFix" result="effect1_dropShadow_806_502"/>
<feBlend mode="normal" in="SourceGraphic" in2="effect1_dropShadow_806_502" result="shape"/>
</filter>
<filter id="filter8_d_806_502" x="123" y="487" width="95" height="95" filterUnits="userSpaceOnUse" color-interpolation-filters="sRGB">
<feFlood flood-opacity="0" result="BackgroundImageFix"/>
<feColorMatrix in="SourceAlpha" type="matrix" values="0 0 0 0 0 0 0 0 0 0 0 0 0 0 0 0 0 0 127 0" result="hardAlpha"/>
<feOffset dy="4"/>
<feGaussianBlur stdDeviation="5"/>
<feComposite in2="hardAlpha" operator="out"/>
<feColorMatrix type="matrix" values="0 0 0 0 0 0 0 0 0 0 0 0 0 0 0 0 0 0 0.08 0"/>
<feBlend mode="normal" in2="BackgroundImageFix" result="effect1_dropShadow_806_502"/>
<feBlend mode="normal" in="SourceGraphic" in2="effect1_dropShadow_806_502" result="shape"/>
</filter>
<filter id="filter9_d_806_502" x="417" y="0" width="95" height="95" filterUnits="userSpaceOnUse" color-interpolation-filters="sRGB">
<feFlood flood-opacity="0" result="BackgroundImageFix"/>
<feColorMatrix in="SourceAlpha" type="matrix" values="0 0 0 0 0 0 0 0 0 0 0 0 0 0 0 0 0 0 127 0" result="hardAlpha"/>
<feOffset dy="4"/>
<feGaussianBlur stdDeviation="5"/>
<feComposite in2="hardAlpha" operator="out"/>
<feColorMatrix type="matrix" values="0 0 0 0 0 0 0 0 0 0 0 0 0 0 0 0 0 0 0.08 0"/>
<feBlend mode="normal" in2="BackgroundImageFix" result="effect1_dropShadow_806_502"/>
<feBlend mode="normal" in="SourceGraphic" in2="effect1_dropShadow_806_502" result="shape"/>
</filter>
<filter id="filter10_d_806_502" x="188" y="368" width="95" height="95" filterUnits="userSpaceOnUse" color-interpolation-filters="sRGB">
<feFlood flood-opacity="0" result="BackgroundImageFix"/>
<feColorMatrix in="SourceAlpha" type="matrix" values="0 0 0 0 0 0 0 0 0 0 0 0 0 0 0 0 0 0 127 0" result="hardAlpha"/>
<feOffset dy="4"/>
<feGaussianBlur stdDeviation="5"/>
<feComposite in2="hardAlpha" operator="out"/>
<feColorMatrix type="matrix" values="0 0 0 0 0 0 0 0 0 0 0 0 0 0 0 0 0 0 0.08 0"/>
<feBlend mode="normal" in2="BackgroundImageFix" result="effect1_dropShadow_806_502"/>
<feBlend mode="normal" in="SourceGraphic" in2="effect1_dropShadow_806_502" result="shape"/>
</filter>
<linearGradient id="paint0_linear_806_502" x1="383" y1="38" x2="383" y2="738" gradientUnits="userSpaceOnUse">
<stop stop-color="#27CA54"/>
<stop offset="1" stop-color="#27CA54" stop-opacity="0.1"/>
</linearGradient>
<linearGradient id="paint1_linear_806_502" x1="383" y1="138" x2="383" y2="638" gradientUnits="userSpaceOnUse">
<stop stop-color="#27CA54"/>
<stop offset="1" stop-color="#27CA54" stop-opacity="0.1"/>
</linearGradient>
<linearGradient id="paint2_linear_806_502" x1="383" y1="238" x2="383" y2="538" gradientUnits="userSpaceOnUse">
<stop stop-color="#27CA54"/>
<stop offset="1" stop-color="#27CA54" stop-opacity="0.1"/>
</linearGradient>
<linearGradient id="paint3_linear_806_502" x1="444.144" y1="616.158" x2="462.139" y2="634.153" gradientUnits="userSpaceOnUse">
<stop stop-color="#010101" stop-opacity="0.1"/>
<stop offset="1" stop-color="#010101" stop-opacity="0"/>
</linearGradient>
<linearGradient id="paint4_linear_806_502" x1="428.195" y1="611.292" x2="469.799" y2="630.691" gradientUnits="userSpaceOnUse">
<stop stop-color="white" stop-opacity="0.2"/>
<stop offset="1" stop-color="white" stop-opacity="0"/>
</linearGradient>
<clipPath id="clip0_806_502">
<rect width="50" height="50" fill="white" transform="translate(424 596)"/>
</clipPath>
<clipPath id="clip1_806_502">
<rect width="33" height="50" fill="white" transform="translate(203 671)"/>
</clipPath>
<clipPath id="clip2_806_502">
<rect width="50" height="50" fill="white" transform="translate(633 147)"/>
</clipPath>
<clipPath id="clip3_806_502">
<rect width="50" height="50" fill="white" transform="translate(145 506)"/>
</clipPath>
</defs>
</svg>
