<svg width="732" height="732" viewBox="0 0 732 732" fill="none" xmlns="http://www.w3.org/2000/svg">
<g clip-path="url(#clip0_1105_2)">
<circle cx="377" cy="382" r="349" stroke="url(#paint0_linear_1105_2)" stroke-width="2"/>
<circle cx="377" cy="382" r="249" stroke="url(#paint1_linear_1105_2)" stroke-width="2"/>
<circle cx="377" cy="382" r="149" stroke="url(#paint2_linear_1105_2)" stroke-width="2"/>
<g filter="url(#filter0_d_1105_2)">
<rect x="405" y="577" width="75" height="75" rx="15" fill="white"/>
<g clip-path="url(#clip1_1105_2)">
<path d="M467.087 612.775C467.084 612.775 467.084 612.774 467.084 612.774L445.212 590.887C444.031 589.704 441.966 589.705 440.791 590.886L418.913 612.775C418.326 613.366 418 614.151 418 614.985C418 615.82 418.326 616.605 418.916 617.196L440.788 639.083C441.378 639.674 442.164 640 443 640C443.836 640 444.622 639.674 445.209 639.084L467.084 617.196C467.674 616.605 468 615.82 468 614.985C468 614.151 467.674 613.366 467.087 612.775Z" fill="#EF473B"/>
<path opacity="0.1" d="M467.335 616.437L445.233 638.554C444.638 639.15 443.845 639.479 443 639.479C442.155 639.479 441.362 639.15 440.766 638.552L418.665 616.437C418.406 616.179 418.209 615.878 418.056 615.558C418.17 616.174 418.463 616.743 418.916 617.196L440.789 639.083C441.379 639.674 442.164 640 443 640C443.836 640 444.622 639.674 445.21 639.084L467.085 617.196C467.537 616.743 467.83 616.174 467.944 615.558C467.791 615.878 467.594 616.179 467.335 616.437Z" fill="#010101"/>
<path d="M453.417 610.833C452.636 610.833 451.912 611.063 451.287 611.438L446.562 606.713C446.937 606.088 447.167 605.364 447.167 604.583C447.167 602.285 445.297 600.417 443 600.417C442.229 600.417 441.516 600.641 440.896 601.007L435.784 595.895L434.312 597.368L439.423 602.481C439.058 603.1 438.833 603.813 438.833 604.583C438.833 606.519 440.167 608.136 441.958 608.602V621.398C440.167 621.864 438.833 623.481 438.833 625.417C438.833 627.715 440.703 629.583 443 629.583C445.297 629.583 447.167 627.715 447.167 625.417C447.167 623.481 445.833 621.864 444.042 621.398V608.602C444.41 608.506 444.755 608.361 445.077 608.174L449.826 612.923C449.469 613.537 449.25 614.24 449.25 615C449.25 617.298 451.12 619.167 453.417 619.167C455.714 619.167 457.583 617.298 457.583 615C457.583 612.702 455.714 610.833 453.417 610.833Z" fill="white"/>
<path opacity="0.2" d="M418.913 613.296L440.791 591.407C441.966 590.226 444.031 590.225 445.212 591.408L467.084 613.295C467.084 613.295 467.084 613.296 467.087 613.296C467.612 613.825 467.914 614.511 467.975 615.245C467.982 615.158 468 615.073 468 614.985C468 614.151 467.674 613.366 467.087 612.775C467.084 612.775 467.084 612.774 467.084 612.774L445.212 590.887C444.031 589.704 441.966 589.705 440.791 590.886L418.913 612.775C418.326 613.366 418 614.151 418 614.985C418 615.073 418.018 615.158 418.025 615.245C418.087 614.511 418.388 613.824 418.913 613.296Z" fill="white"/>
<path d="M456.643 612.397C457.222 613.112 457.583 614.01 457.583 615C457.583 617.298 455.713 619.167 453.416 619.167C451.12 619.167 449.25 617.298 449.25 615C449.25 614.24 449.469 613.537 449.826 612.923L445.077 608.174C444.755 608.361 444.41 608.506 444.041 608.602V621.398C445.833 621.864 447.166 623.481 447.166 625.417C447.166 627.715 445.297 629.583 443 629.583C441.934 629.583 440.971 629.169 440.233 628.509L448.008 636.283L464.264 620.017L456.643 612.397ZM446.562 606.713L451.287 611.438C451.912 611.063 452.635 610.833 453.416 610.833C454.406 610.833 455.305 611.195 456.02 611.774L446.275 602.028L446.27 602.033C446.823 602.74 447.166 603.618 447.166 604.583C447.166 605.364 446.937 606.088 446.562 606.713Z" fill="url(#paint3_linear_1105_2)"/>
<path d="M467.087 612.775C467.084 612.775 467.084 612.774 467.084 612.774L445.212 590.887C444.031 589.704 441.966 589.705 440.791 590.886L418.913 612.775C418.326 613.366 418 614.151 418 614.985C418 615.82 418.326 616.605 418.916 617.196L440.788 639.083C441.378 639.674 442.164 640 443 640C443.836 640 444.622 639.674 445.209 639.084L467.084 617.196C467.674 616.605 468 615.82 468 614.985C468 614.151 467.674 613.366 467.087 612.775Z" fill="url(#paint4_linear_1105_2)"/>
</g>
</g>
<g filter="url(#filter1_d_1105_2)">
<rect x="176" y="652" width="75" height="75" rx="15" fill="white"/>
<g clip-path="url(#clip2_1105_2)">
<path d="M205.252 715C209.805 715 213.5 711.267 213.5 706.667V698.333H205.252C200.699 698.333 197.003 702.067 197.003 706.667C197.003 711.267 200.699 715 205.252 715Z" fill="#0ACF83"/>
<path d="M197.003 690C197.003 685.4 200.699 681.667 205.252 681.667H213.5V698.333H205.252C200.699 698.333 197.003 694.6 197.003 690Z" fill="#A259FF"/>
<path d="M197.002 673.333C197.002 668.733 200.698 665 205.251 665H213.499V681.667H205.251C200.698 681.667 197.002 677.933 197.002 673.333Z" fill="#F24E1E"/>
<path d="M213.5 665H221.748C226.301 665 229.997 668.733 229.997 673.333C229.997 677.933 226.301 681.667 221.748 681.667H213.5V665Z" fill="#FF7262"/>
<path d="M229.997 690C229.997 694.6 226.301 698.333 221.748 698.333C217.195 698.333 213.5 694.6 213.5 690C213.5 685.4 217.195 681.667 221.748 681.667C226.301 681.667 229.997 685.4 229.997 690Z" fill="#1ABCFE"/>
</g>
</g>
<g filter="url(#filter2_d_1105_2)">
<rect x="227" y="128" width="75" height="75" rx="15" fill="white"/>
<path d="M269.646 166.008C269.646 167.243 269.155 168.428 268.282 169.302C267.409 170.175 266.225 170.666 264.99 170.667C263.754 170.667 262.569 170.176 261.696 169.302C260.822 168.429 260.331 167.244 260.331 166.008C260.331 164.773 260.822 163.589 261.695 162.715C262.568 161.842 263.752 161.351 264.988 161.35C266.223 161.35 267.408 161.841 268.281 162.714C269.155 163.588 269.646 164.773 269.646 166.008ZM275.163 143.738C272.358 143.738 268.69 145.738 264.979 149.2C261.271 145.756 257.6 143.779 254.798 143.779C253.944 143.779 253.167 143.973 252.494 144.358C249.629 146.01 248.988 151.158 250.467 157.619C244.125 159.577 240 162.708 240 166.008C240 169.321 244.146 172.46 250.506 174.404C249.04 180.89 249.694 186.046 252.565 187.696C253.231 188.085 254.002 188.269 254.86 188.269C257.663 188.269 261.333 186.269 265.044 182.802C268.752 186.248 272.423 188.225 275.225 188.225C276.079 188.225 276.856 188.038 277.529 187.652C280.392 186.002 281.035 180.854 279.556 174.392C285.875 172.45 290 169.313 290 166.008C290 162.696 285.854 159.556 279.494 157.608C280.96 151.129 280.306 145.969 277.435 144.317C276.773 143.933 276.002 143.74 275.16 143.738H275.163ZM275.152 146.008V146.021C275.621 146.021 275.998 146.113 276.315 146.285C277.702 147.081 278.304 150.108 277.835 154.002C277.723 154.96 277.54 155.971 277.315 157.002C275.315 156.51 273.135 156.133 270.842 155.89C269.467 154.004 268.04 152.292 266.602 150.792C269.919 147.708 273.033 146.017 275.154 146.01L275.152 146.008ZM254.798 146.05C256.906 146.05 260.035 147.733 263.36 150.8C261.931 152.3 260.506 154.002 259.152 155.888C256.846 156.131 254.665 156.508 252.667 157.008C252.433 155.988 252.26 155 252.138 154.05C251.658 150.158 252.25 147.133 253.625 146.327C254.021 146.14 254.458 146.063 254.798 146.052V146.05ZM264.969 152.404C265.917 153.379 266.865 154.471 267.802 155.663C266.885 155.621 265.948 155.592 265 155.592C264.042 155.592 263.094 155.613 262.167 155.663C263.083 154.471 264.031 153.379 264.969 152.402V152.404ZM265 157.875C266.542 157.875 268.077 157.946 269.587 158.069C270.433 159.281 271.258 160.575 272.052 161.944C272.827 163.277 273.531 164.631 274.173 165.998C273.531 167.363 272.827 168.727 272.062 170.06C271.271 171.435 270.452 172.744 269.604 173.956C268.088 174.088 266.55 174.16 265 174.16C263.458 174.16 261.923 174.088 260.413 173.967C259.567 172.754 258.742 171.458 257.948 170.092C257.173 168.758 256.469 167.404 255.827 166.038C256.458 164.669 257.173 163.302 257.938 161.967C258.729 160.592 259.548 159.288 260.396 158.075C261.913 157.942 263.45 157.871 265 157.871V157.875ZM257.427 158.404C256.927 159.19 256.427 159.994 255.96 160.821C255.492 161.633 255.054 162.45 254.637 163.267C254.085 161.9 253.617 160.538 253.229 159.21C254.562 158.898 255.969 158.621 257.427 158.406V158.404ZM272.552 158.404C274 158.619 275.396 158.883 276.731 159.21C276.356 160.527 275.888 161.881 275.356 163.238C274.94 162.425 274.502 161.606 274.023 160.792C273.554 159.975 273.054 159.179 272.554 158.404H272.552ZM278.933 159.81C279.942 160.123 280.9 160.471 281.798 160.848C285.406 162.39 287.74 164.406 287.74 166.006C287.729 167.606 285.396 169.631 281.788 171.163C280.913 171.538 279.954 171.875 278.965 172.19C278.381 170.194 277.619 168.115 276.673 165.981C277.61 163.863 278.36 161.794 278.933 159.806V159.81ZM251.027 159.819C251.606 161.819 252.371 163.896 253.319 166.027C252.381 168.146 251.627 170.215 251.056 172.202C250.048 171.89 249.09 171.54 248.202 171.16C244.594 169.625 242.26 167.606 242.26 166.006C242.26 164.406 244.594 162.377 248.202 160.848C249.077 160.473 250.035 160.135 251.027 159.819ZM275.356 168.735C275.908 170.104 276.377 171.469 276.765 172.794C275.431 173.121 274.023 173.398 272.565 173.606C273.065 172.825 273.565 172.019 274.033 171.194C274.502 170.381 274.94 169.552 275.358 168.735H275.356ZM254.637 168.777C255.054 169.594 255.492 170.408 255.971 171.225C256.45 172.038 256.94 172.833 257.44 173.606C255.992 173.394 254.596 173.127 253.26 172.802C253.635 171.49 254.106 170.131 254.635 168.775L254.637 168.777ZM277.333 175C277.567 176.027 277.75 177.017 277.863 177.965C278.342 181.856 277.75 184.881 276.375 185.69C276.069 185.877 275.671 185.956 275.202 185.956C273.094 185.956 269.965 184.275 266.64 181.206C268.069 179.706 269.494 178.006 270.848 176.123C273.154 175.877 275.335 175.498 277.333 174.998V175ZM252.688 175.021C254.688 175.508 256.867 175.885 259.16 176.129C260.535 178.015 261.963 179.727 263.4 181.225C260.077 184.315 256.958 186.006 254.838 186.006C254.379 185.996 253.992 185.902 253.685 185.731C252.298 184.94 251.696 181.91 252.165 178.017C252.277 177.058 252.46 176.05 252.685 175.021H252.688ZM262.188 176.354C263.104 176.396 264.042 176.425 264.99 176.425C265.948 176.425 266.896 176.404 267.823 176.354C266.906 177.546 265.958 178.635 265.021 179.615C264.073 178.635 263.125 177.546 262.188 176.354Z" fill="#61DAFB"/>
</g>
<g filter="url(#filter3_d_1105_2)">
<rect x="437" y="440" width="75" height="75" rx="15" fill="white"/>
<rect x="450" y="453" width="50" height="50" rx="3" fill="#F7DF1E"/>
<path fill-rule="evenodd" clip-rule="evenodd" d="M485.883 475.209C483.079 475.898 481.246 478.022 481.067 480.791C480.939 482.758 481.564 484.553 482.815 485.809C483.905 486.905 484.866 487.462 488.263 488.966C490.679 490.037 491.282 490.655 491.211 491.992C491.179 492.584 491.125 492.749 490.854 493.086C490.678 493.304 490.265 493.621 489.935 493.791C488.816 494.367 486.8 494.261 485.611 493.564C484.972 493.19 484.225 492.474 483.829 491.858C483.649 491.577 483.486 491.347 483.467 491.347C483.407 491.347 479.831 493.443 479.737 493.533C479.688 493.58 479.769 493.822 479.916 494.071C481.373 496.533 484.01 498.081 487.15 498.315C491.102 498.61 494.149 497.25 495.393 494.637C495.836 493.707 496.066 492.437 495.987 491.351C495.83 489.168 495.057 487.697 493.415 486.461C492.346 485.655 491.438 485.165 489.26 484.218C486.779 483.139 486.211 482.758 485.872 481.948C485.567 481.219 485.707 480.329 486.218 479.747C486.794 479.091 488.326 478.894 489.277 479.354C489.732 479.575 490.296 480.111 490.771 480.775L490.986 481.077L492.774 479.936C493.757 479.308 494.562 478.741 494.563 478.676C494.566 478.501 493.695 477.35 493.186 476.856C491.84 475.55 490.22 474.985 487.863 475C487.09 475.005 486.426 475.075 485.883 475.209ZM472.354 483.871L472.325 492.545L472.096 492.974C471.628 493.849 470.86 494.223 469.718 494.133C468.649 494.048 467.89 493.492 467.194 492.284C467.045 492.027 466.911 491.799 466.896 491.778C466.88 491.757 465.997 492.268 464.934 492.912L463 494.085L463.279 494.565C464.273 496.278 465.612 497.381 467.43 497.986C468.197 498.241 468.403 498.263 470.034 498.268C471.422 498.273 471.949 498.234 472.474 498.089C474.596 497.503 476.008 496.18 476.695 494.134C477.121 492.866 477.18 491.389 477.147 482.909L477.117 475.253L474.75 475.225L472.383 475.197L472.354 483.871Z" fill="#2F2F2F"/>
</g>
<g filter="url(#filter4_d_1105_2)">
<rect x="399" y="203" width="75" height="75" rx="15" fill="white"/>
<path d="M414.125 216H457.875L453.896 260.923L435.952 266L418.11 260.921L414.125 216ZM428.773 236.312L428.29 230.65L449.246 230.656L449.725 225.194L422.275 225.187L423.729 241.875H442.742L442.062 249.012L436 250.687L429.844 249L429.452 244.604H424.017L424.704 253.294L436 256.315L447.206 253.308L448.756 236.315H428.773V236.312Z" fill="#E34F26"/>
</g>
<g filter="url(#filter5_d_1105_2)">
<rect x="4" y="216" width="75" height="75" rx="15" fill="white"/>
<path fill-rule="evenodd" clip-rule="evenodd" d="M58.1431 261.781C58.3544 261.668 58.53 261.504 58.6524 261.306C58.7747 261.109 58.8396 260.885 58.8404 260.656L58.8654 253.121C58.8661 252.893 58.931 252.669 59.0533 252.471C59.1757 252.274 59.3513 252.11 59.5626 251.996L63.9195 249.65C64.1307 249.536 64.37 249.476 64.6135 249.477C64.857 249.477 65.0962 249.538 65.3069 249.652C65.5177 249.766 65.6926 249.931 65.8143 250.128C65.936 250.326 66 250.55 66.0001 250.779V264.478C66 264.707 65.9355 264.932 65.8131 265.13C65.6907 265.328 65.5147 265.493 65.3029 265.607L48.8598 274.461C48.6498 274.574 48.4119 274.634 48.1697 274.634C47.9275 274.634 47.6895 274.575 47.4792 274.462L34.5751 267.543C34.3625 267.429 34.1858 267.265 34.0629 267.066C33.9399 266.868 33.8752 266.642 33.8751 266.413V259.505C33.8751 259.497 33.8848 259.492 33.8931 259.496C33.9001 259.5 33.9098 259.496 33.9098 259.487V259.479C33.9098 259.474 33.9126 259.469 33.9181 259.466L44.5459 253.742C44.5556 253.737 44.5515 253.723 44.5404 253.723C44.5374 253.723 44.5346 253.722 44.5325 253.72C44.5304 253.718 44.5292 253.715 44.5292 253.712L44.5501 246.94C44.551 246.711 44.4876 246.486 44.3661 246.287C44.2446 246.089 44.0693 245.923 43.858 245.809C43.6467 245.694 43.4068 245.633 43.1626 245.633C42.9183 245.633 42.6783 245.693 42.4667 245.807L34.5681 250.074C34.3573 250.188 34.1183 250.248 33.8751 250.248C33.6318 250.248 33.3928 250.188 33.182 250.074L25.2584 245.797C25.0473 245.683 24.808 245.623 24.5644 245.623C24.3208 245.623 24.0815 245.684 23.8706 245.798C23.6597 245.912 23.4845 246.076 23.3627 246.274C23.2408 246.472 23.1766 246.696 23.1765 246.924V259.164C23.1766 259.392 23.1129 259.616 22.9915 259.814C22.8702 260.012 22.6956 260.176 22.4852 260.291C22.2748 260.405 22.036 260.466 21.7926 260.467C21.5493 260.468 21.31 260.409 21.0987 260.296L16.7015 257.939C16.4885 257.825 16.3115 257.66 16.1886 257.461C16.0656 257.262 16.0011 257.036 16.0015 256.806L16.0404 235.413C16.0409 235.185 16.1053 234.961 16.2272 234.763C16.349 234.566 16.524 234.402 16.7347 234.288C16.9454 234.174 17.1843 234.114 17.4276 234.114C17.6709 234.113 17.91 234.173 18.1209 234.286L33.1834 242.397C33.3939 242.51 33.6324 242.57 33.8751 242.57C34.1178 242.57 34.3563 242.51 34.5667 242.397L49.6251 234.286C49.8363 234.173 50.0758 234.113 50.3194 234.114C50.5631 234.114 50.8023 234.174 51.0131 234.289C51.2239 234.404 51.3988 234.568 51.5204 234.766C51.6419 234.964 51.7058 235.188 51.7056 235.417V256.815C51.7057 257.044 51.6415 257.269 51.5193 257.467C51.3971 257.665 51.2214 257.83 51.0098 257.944L43.1237 262.202C42.9119 262.316 42.736 262.481 42.614 262.68C42.4919 262.878 42.4279 263.104 42.4285 263.333C42.429 263.562 42.4941 263.787 42.6172 263.985C42.7402 264.183 42.9169 264.347 43.1292 264.461L47.4792 266.783C47.6895 266.895 47.9273 266.954 48.1692 266.953C48.4111 266.953 48.6487 266.893 48.8584 266.78L58.1431 261.781ZM59.0556 242.586C59.0558 242.816 59.1212 243.042 59.2449 243.241C59.3688 243.44 59.5466 243.605 59.7603 243.718C59.9741 243.831 60.2161 243.89 60.4617 243.887C60.7073 243.884 60.9477 243.82 61.1584 243.702L65.3251 241.358C65.5308 241.243 65.701 241.079 65.8193 240.883C65.9376 240.688 65.9999 240.467 66.0001 240.242V235.466C65.9996 235.236 65.9341 235.01 65.8102 234.811C65.6863 234.613 65.5085 234.448 65.2948 234.335C65.081 234.222 64.8391 234.164 64.5936 234.167C64.3482 234.169 64.1079 234.233 63.8973 234.352L59.7306 236.695C59.5249 236.811 59.3547 236.974 59.2364 237.17C59.1181 237.365 59.0558 237.586 59.0556 237.811V242.587V242.586Z" fill="#007FFF"/>
</g>
<g filter="url(#filter6_d_1105_2)">
<rect x="615" y="128" width="75" height="75" rx="15" fill="white"/>
<g clip-path="url(#clip3_1105_2)">
<path d="M670.027 169.724C668.279 169.737 666.766 170.297 665.496 171.13C665.027 169.893 664.559 168.813 664.481 168.005C664.393 167.068 664.285 166.495 664.393 165.375C664.5 164.255 664.988 162.667 664.988 162.536C664.979 162.419 664.881 161.846 663.875 161.833C662.869 161.82 662 162.094 661.902 162.445C661.805 162.797 661.609 163.604 661.482 164.438C661.307 165.661 659.471 169.997 658.426 172.276C658.084 171.391 657.791 170.609 657.732 169.984C657.645 169.047 657.537 168.474 657.645 167.354C657.752 166.234 658.24 164.646 658.24 164.516C658.231 164.398 658.133 163.826 657.127 163.813C656.121 163.8 655.252 164.073 655.154 164.425C655.057 164.776 654.949 165.609 654.734 166.417C654.529 167.224 652.088 174.464 651.453 176.352C651.131 177.315 650.848 178.083 650.643 178.604C650.438 179.125 650.633 178.643 650.613 178.695C650.438 179.138 650.34 179.385 650.34 179.385V179.398C650.203 179.724 650.057 180.036 649.988 180.036C649.94 180.036 649.842 179.164 650.008 177.966C650.369 175.453 651.248 171.534 651.238 171.391C651.238 171.326 651.404 170.635 650.672 170.284C649.959 169.932 649.705 170.518 649.647 170.518C649.588 170.518 649.539 170.727 649.539 170.727C649.539 170.727 650.33 166.313 648.025 166.313C646.58 166.313 644.588 168.409 643.602 170.323C642.977 170.779 641.649 171.742 640.242 172.771C639.705 173.161 639.149 173.578 638.621 173.956L638.514 173.8C635.721 169.828 630.555 167.016 630.77 161.677C630.848 159.737 631.356 154.62 640.691 148.422C648.338 143.344 654.461 144.737 655.525 147.836C657.039 152.263 652.254 160.492 644.305 161.677C641.277 162.133 639.686 160.57 639.285 159.984C638.865 159.372 638.807 159.346 638.65 159.464C638.397 159.646 638.553 160.193 638.65 160.518C638.885 161.339 639.861 162.797 641.522 163.526C642.977 164.164 646.531 164.516 650.828 162.302C655.643 159.815 659.402 152.914 658.299 147.146C657.176 141.273 649.871 139.346 642.967 142.615C638.856 144.568 634.402 147.615 631.199 151.612C627.391 156.352 626.785 160.492 627.039 162.211C627.928 168.344 634.266 172.341 636.805 175.297C636.678 175.388 636.561 175.479 636.453 175.557C635.184 176.391 630.35 179.763 629.139 183.331C627.772 187.367 629.354 190.271 630.408 190.661C633.67 191.872 637.01 189.698 638.816 186.117C640.613 182.536 640.399 177.888 639.568 175.766L639.539 175.688L640.535 174.906C641.18 174.398 641.815 173.93 642.371 173.526C642.059 174.659 641.834 176 641.717 177.953C641.58 180.245 642.283 183.214 643.211 184.385C643.621 184.893 644.109 184.906 644.412 184.906C645.486 184.906 645.975 183.721 646.512 182.302C647.176 180.57 647.762 178.565 647.762 178.565C647.762 178.565 647.029 183.995 649.031 183.995C649.764 183.995 650.496 182.732 650.828 182.081V182.094C650.828 182.094 650.848 182.055 650.887 181.964C650.965 181.807 651.004 181.716 651.004 181.716V181.69C651.297 181.013 651.951 179.464 652.928 176.898C654.188 173.591 655.399 169.451 655.399 169.451C655.399 169.451 655.516 170.466 655.877 172.133C656.092 173.122 656.561 174.203 656.922 175.258C656.629 175.805 656.453 176.117 656.453 176.117L656.463 176.13C656.229 176.547 655.965 176.99 655.691 177.432C654.695 179.021 653.504 180.831 653.348 181.352C653.162 181.964 653.201 182.419 653.563 182.784C653.826 183.044 654.295 183.096 654.793 183.044C655.691 182.966 656.316 182.667 656.629 182.484C657.117 182.25 657.674 181.898 658.211 181.378C659.188 180.414 659.783 179.047 659.725 177.224C659.695 176.221 659.451 175.232 659.149 174.294C659.236 174.125 659.324 173.956 659.412 173.773C660.955 170.766 662.147 167.458 662.147 167.458C662.147 167.458 662.264 168.474 662.625 170.141C662.811 170.987 663.182 171.911 663.514 172.823C662.068 174.398 661.16 176.221 660.848 177.419C660.272 179.633 660.721 180.635 661.57 180.87C661.951 180.974 662.498 180.74 662.908 180.505C663.416 180.284 664.031 179.906 664.598 179.346C665.574 178.383 666.512 177.042 666.463 175.232C666.434 174.398 666.268 173.578 666.043 172.797C667.274 172.12 668.865 171.729 670.887 172.055C675.232 172.732 676.092 176.352 675.926 177.862C675.76 179.372 674.852 180.206 674.549 180.466C674.246 180.714 674.149 180.805 674.178 180.987C674.217 181.26 674.354 181.247 674.617 181.195C674.979 181.117 676.902 179.958 676.981 177.172C677.098 173.591 674.549 169.685 670.027 169.724ZM636.512 184.789C635.076 186.885 633.055 187.68 632.195 187.003C631.268 186.286 631.629 183.201 633.397 180.974C634.471 179.62 635.867 178.37 636.785 177.602C636.99 177.432 637.303 177.185 637.674 176.885C637.732 176.833 637.772 176.807 637.772 176.807C637.84 176.755 637.918 176.69 637.996 176.625C638.65 179.802 638.025 182.589 636.512 184.789ZM647.01 175.271C646.512 176.898 645.457 181.078 644.822 180.844C644.275 180.648 643.943 177.484 644.715 174.359C645.106 172.784 645.936 170.909 646.424 170.18C647.215 169.008 648.074 168.617 648.289 169.099C648.543 169.724 647.322 174.255 647.01 175.271ZM655.672 180.792C655.457 180.935 655.262 181.039 655.174 180.961C655.106 180.909 655.262 180.714 655.262 180.714C655.262 180.714 656.346 179.164 656.775 178.448C657.02 178.031 657.313 177.55 657.625 177.003V177.159C657.625 179.034 656.277 180.284 655.672 180.792ZM662.352 178.76C662.195 178.604 662.215 178.122 662.742 176.612C662.947 176.013 663.416 175.01 664.227 174.06C664.324 174.451 664.383 174.828 664.373 175.18C664.363 177.523 663.113 178.396 662.352 178.76Z" fill="#CF649A"/>
</g>
</g>
<g filter="url(#filter7_d_1105_2)">
<rect x="587" y="333" width="75" height="75" rx="15" fill="white"/>
<path d="M629.781 349.906L624 359.828L618.219 349.906H599L624 392.875L649 349.906H629.781Z" fill="#42B883"/>
<path d="M629.781 349.906L624 359.828L618.219 349.906H609L624 375.688L639 349.906H629.781Z" fill="#35495E"/>
</g>
<g filter="url(#filter8_d_1105_2)">
<rect x="127" y="487" width="75" height="75" rx="15" fill="white"/>
<g clip-path="url(#clip4_1105_2)">
<path d="M154.199 542.306C154.162 542.24 154.129 542.172 154.1 542.103C153.9 541.64 153.839 541.13 153.923 540.633H142.103L159.669 509.72L165.436 519.858L167.109 516.899L162.081 508.042C161.84 507.589 161.49 507.203 161.061 506.92C160.632 506.637 160.14 506.466 159.628 506.422C159.117 506.446 158.623 506.612 158.202 506.902C157.781 507.192 157.45 507.595 157.247 508.063L139.451 539.352C139.185 539.794 139.032 540.294 139.004 540.809C138.977 541.324 139.077 541.838 139.295 542.305C139.569 542.737 139.958 543.083 140.418 543.305C140.878 543.527 141.391 543.616 141.9 543.561H156.804C156.296 543.617 155.782 543.528 155.322 543.306C154.861 543.085 154.473 542.738 154.199 542.306Z" fill="#00C492"/>
<path d="M188.468 539.352L173.844 513.591C173.605 513.132 173.253 512.742 172.822 512.455C172.392 512.168 171.896 511.994 171.38 511.95C170.87 511.972 170.376 512.137 169.955 512.426C169.534 512.715 169.203 513.117 168.999 513.585L167.108 516.899L168.791 519.858L171.395 515.247L185.863 540.633H180.361C180.432 541.053 180.392 541.484 180.247 541.884C180.216 541.972 180.178 542.057 180.132 542.139L180.085 542.233C179.786 542.655 179.388 542.997 178.926 543.228C178.463 543.46 177.951 543.574 177.434 543.561H186.04C186.557 543.575 187.07 543.461 187.532 543.229C187.995 542.997 188.393 542.655 188.692 542.233C188.927 541.78 189.031 541.27 188.992 540.76C188.952 540.251 188.77 539.763 188.468 539.352Z" fill="#008776"/>
<path d="M180.085 542.233L180.132 542.139C180.178 542.058 180.216 541.972 180.247 541.884C180.393 541.484 180.432 541.053 180.362 540.634C180.281 540.181 180.118 539.747 179.882 539.352L168.802 519.858L167.109 516.899L165.426 519.858L154.351 539.353C154.136 539.752 153.991 540.186 153.924 540.634C153.834 541.129 153.891 541.639 154.085 542.103C154.114 542.173 154.147 542.241 154.184 542.306C154.458 542.738 154.847 543.084 155.307 543.306C155.768 543.528 156.281 543.616 156.789 543.562H177.418C177.938 543.577 178.453 543.464 178.919 543.232C179.384 543 179.785 542.657 180.085 542.233H180.085ZM167.109 522.817L177.236 540.634H156.986L167.109 522.817Z" fill="#2D4A5D"/>
</g>
</g>
<g filter="url(#filter9_d_1105_2)">
<rect x="421" width="75" height="75" rx="15" fill="white"/>
<path d="M458 58.7143C469.44 58.7143 478.714 49.4402 478.714 38.0001C478.714 26.5599 469.44 17.2858 458 17.2858C446.56 17.2858 437.286 26.5599 437.286 38.0001C437.286 49.4402 446.56 58.7143 458 58.7143Z" fill="#222222" stroke="#ECEDEE" stroke-width="2"/>
<path d="M451.312 57.7454L478.53 42.0311" stroke="#ECEDEE"/>
<path d="M437.741 34.2391L464.959 18.5249" stroke="#ECEDEE"/>
<path d="M445.362 54.5825L470.105 40.2968" stroke="#ECEDEE" stroke-linecap="round" stroke-linejoin="round"/>
<path d="M446.166 35.9735L470.909 21.6879" stroke="#ECEDEE" stroke-linecap="round"/>
<path d="M451.905 33.3281L465.157 43.1538" stroke="#ECEDEE" stroke-linecap="round" stroke-linejoin="round"/>
<path d="M456.854 30.4717L470.105 40.2968" stroke="#ECEDEE" stroke-linecap="round" stroke-linejoin="round"/>
<path d="M446.166 35.9735L460.208 46.0111" stroke="#ECEDEE" stroke-linecap="round" stroke-linejoin="round"/>
</g>
<g filter="url(#filter10_d_1105_2)">
<rect x="192" y="368" width="75" height="75" rx="15" fill="white"/>
<path d="M207.125 381H250.875L246.896 425.923L228.952 431L211.108 425.921L207.125 381ZM242.729 390.194L215.271 390.187L215.715 395.65L236.808 395.654L236.277 401.312H222.444L222.944 406.673H235.823L235.06 414.012L228.998 415.687L222.84 414L222.448 409.604H217.01L217.615 417.635L229 421.183L240.194 417.996L242.729 390.196V390.194Z" fill="#0074BE"/>
</g>
</g>
<defs>
<filter id="filter0_d_1105_2" x="395" y="571" width="95" height="95" filterUnits="userSpaceOnUse" color-interpolation-filters="sRGB">
<feFlood flood-opacity="0" result="BackgroundImageFix"/>
<feColorMatrix in="SourceAlpha" type="matrix" values="0 0 0 0 0 0 0 0 0 0 0 0 0 0 0 0 0 0 127 0" result="hardAlpha"/>
<feOffset dy="4"/>
<feGaussianBlur stdDeviation="5"/>
<feComposite in2="hardAlpha" operator="out"/>
<feColorMatrix type="matrix" values="0 0 0 0 0 0 0 0 0 0 0 0 0 0 0 0 0 0 0.08 0"/>
<feBlend mode="normal" in2="BackgroundImageFix" result="effect1_dropShadow_1105_2"/>
<feBlend mode="normal" in="SourceGraphic" in2="effect1_dropShadow_1105_2" result="shape"/>
</filter>
<filter id="filter1_d_1105_2" x="166" y="646" width="95" height="95" filterUnits="userSpaceOnUse" color-interpolation-filters="sRGB">
<feFlood flood-opacity="0" result="BackgroundImageFix"/>
<feColorMatrix in="SourceAlpha" type="matrix" values="0 0 0 0 0 0 0 0 0 0 0 0 0 0 0 0 0 0 127 0" result="hardAlpha"/>
<feOffset dy="4"/>
<feGaussianBlur stdDeviation="5"/>
<feComposite in2="hardAlpha" operator="out"/>
<feColorMatrix type="matrix" values="0 0 0 0 0 0 0 0 0 0 0 0 0 0 0 0 0 0 0.08 0"/>
<feBlend mode="normal" in2="BackgroundImageFix" result="effect1_dropShadow_1105_2"/>
<feBlend mode="normal" in="SourceGraphic" in2="effect1_dropShadow_1105_2" result="shape"/>
</filter>
<filter id="filter2_d_1105_2" x="217" y="122" width="95" height="95" filterUnits="userSpaceOnUse" color-interpolation-filters="sRGB">
<feFlood flood-opacity="0" result="BackgroundImageFix"/>
<feColorMatrix in="SourceAlpha" type="matrix" values="0 0 0 0 0 0 0 0 0 0 0 0 0 0 0 0 0 0 127 0" result="hardAlpha"/>
<feOffset dy="4"/>
<feGaussianBlur stdDeviation="5"/>
<feComposite in2="hardAlpha" operator="out"/>
<feColorMatrix type="matrix" values="0 0 0 0 0 0 0 0 0 0 0 0 0 0 0 0 0 0 0.08 0"/>
<feBlend mode="normal" in2="BackgroundImageFix" result="effect1_dropShadow_1105_2"/>
<feBlend mode="normal" in="SourceGraphic" in2="effect1_dropShadow_1105_2" result="shape"/>
</filter>
<filter id="filter3_d_1105_2" x="427" y="434" width="95" height="95" filterUnits="userSpaceOnUse" color-interpolation-filters="sRGB">
<feFlood flood-opacity="0" result="BackgroundImageFix"/>
<feColorMatrix in="SourceAlpha" type="matrix" values="0 0 0 0 0 0 0 0 0 0 0 0 0 0 0 0 0 0 127 0" result="hardAlpha"/>
<feOffset dy="4"/>
<feGaussianBlur stdDeviation="5"/>
<feComposite in2="hardAlpha" operator="out"/>
<feColorMatrix type="matrix" values="0 0 0 0 0 0 0 0 0 0 0 0 0 0 0 0 0 0 0.08 0"/>
<feBlend mode="normal" in2="BackgroundImageFix" result="effect1_dropShadow_1105_2"/>
<feBlend mode="normal" in="SourceGraphic" in2="effect1_dropShadow_1105_2" result="shape"/>
</filter>
<filter id="filter4_d_1105_2" x="389" y="197" width="95" height="95" filterUnits="userSpaceOnUse" color-interpolation-filters="sRGB">
<feFlood flood-opacity="0" result="BackgroundImageFix"/>
<feColorMatrix in="SourceAlpha" type="matrix" values="0 0 0 0 0 0 0 0 0 0 0 0 0 0 0 0 0 0 127 0" result="hardAlpha"/>
<feOffset dy="4"/>
<feGaussianBlur stdDeviation="5"/>
<feComposite in2="hardAlpha" operator="out"/>
<feColorMatrix type="matrix" values="0 0 0 0 0 0 0 0 0 0 0 0 0 0 0 0 0 0 0.08 0"/>
<feBlend mode="normal" in2="BackgroundImageFix" result="effect1_dropShadow_1105_2"/>
<feBlend mode="normal" in="SourceGraphic" in2="effect1_dropShadow_1105_2" result="shape"/>
</filter>
<filter id="filter5_d_1105_2" x="-6" y="210" width="95" height="95" filterUnits="userSpaceOnUse" color-interpolation-filters="sRGB">
<feFlood flood-opacity="0" result="BackgroundImageFix"/>
<feColorMatrix in="SourceAlpha" type="matrix" values="0 0 0 0 0 0 0 0 0 0 0 0 0 0 0 0 0 0 127 0" result="hardAlpha"/>
<feOffset dy="4"/>
<feGaussianBlur stdDeviation="5"/>
<feComposite in2="hardAlpha" operator="out"/>
<feColorMatrix type="matrix" values="0 0 0 0 0 0 0 0 0 0 0 0 0 0 0 0 0 0 0.08 0"/>
<feBlend mode="normal" in2="BackgroundImageFix" result="effect1_dropShadow_1105_2"/>
<feBlend mode="normal" in="SourceGraphic" in2="effect1_dropShadow_1105_2" result="shape"/>
</filter>
<filter id="filter6_d_1105_2" x="605" y="122" width="95" height="95" filterUnits="userSpaceOnUse" color-interpolation-filters="sRGB">
<feFlood flood-opacity="0" result="BackgroundImageFix"/>
<feColorMatrix in="SourceAlpha" type="matrix" values="0 0 0 0 0 0 0 0 0 0 0 0 0 0 0 0 0 0 127 0" result="hardAlpha"/>
<feOffset dy="4"/>
<feGaussianBlur stdDeviation="5"/>
<feComposite in2="hardAlpha" operator="out"/>
<feColorMatrix type="matrix" values="0 0 0 0 0 0 0 0 0 0 0 0 0 0 0 0 0 0 0.08 0"/>
<feBlend mode="normal" in2="BackgroundImageFix" result="effect1_dropShadow_1105_2"/>
<feBlend mode="normal" in="SourceGraphic" in2="effect1_dropShadow_1105_2" result="shape"/>
</filter>
<filter id="filter7_d_1105_2" x="577" y="327" width="95" height="95" filterUnits="userSpaceOnUse" color-interpolation-filters="sRGB">
<feFlood flood-opacity="0" result="BackgroundImageFix"/>
<feColorMatrix in="SourceAlpha" type="matrix" values="0 0 0 0 0 0 0 0 0 0 0 0 0 0 0 0 0 0 127 0" result="hardAlpha"/>
<feOffset dy="4"/>
<feGaussianBlur stdDeviation="5"/>
<feComposite in2="hardAlpha" operator="out"/>
<feColorMatrix type="matrix" values="0 0 0 0 0 0 0 0 0 0 0 0 0 0 0 0 0 0 0.08 0"/>
<feBlend mode="normal" in2="BackgroundImageFix" result="effect1_dropShadow_1105_2"/>
<feBlend mode="normal" in="SourceGraphic" in2="effect1_dropShadow_1105_2" result="shape"/>
</filter>
<filter id="filter8_d_1105_2" x="117" y="481" width="95" height="95" filterUnits="userSpaceOnUse" color-interpolation-filters="sRGB">
<feFlood flood-opacity="0" result="BackgroundImageFix"/>
<feColorMatrix in="SourceAlpha" type="matrix" values="0 0 0 0 0 0 0 0 0 0 0 0 0 0 0 0 0 0 127 0" result="hardAlpha"/>
<feOffset dy="4"/>
<feGaussianBlur stdDeviation="5"/>
<feComposite in2="hardAlpha" operator="out"/>
<feColorMatrix type="matrix" values="0 0 0 0 0 0 0 0 0 0 0 0 0 0 0 0 0 0 0.08 0"/>
<feBlend mode="normal" in2="BackgroundImageFix" result="effect1_dropShadow_1105_2"/>
<feBlend mode="normal" in="SourceGraphic" in2="effect1_dropShadow_1105_2" result="shape"/>
</filter>
<filter id="filter9_d_1105_2" x="411" y="-6" width="95" height="95" filterUnits="userSpaceOnUse" color-interpolation-filters="sRGB">
<feFlood flood-opacity="0" result="BackgroundImageFix"/>
<feColorMatrix in="SourceAlpha" type="matrix" values="0 0 0 0 0 0 0 0 0 0 0 0 0 0 0 0 0 0 127 0" result="hardAlpha"/>
<feOffset dy="4"/>
<feGaussianBlur stdDeviation="5"/>
<feComposite in2="hardAlpha" operator="out"/>
<feColorMatrix type="matrix" values="0 0 0 0 0 0 0 0 0 0 0 0 0 0 0 0 0 0 0.08 0"/>
<feBlend mode="normal" in2="BackgroundImageFix" result="effect1_dropShadow_1105_2"/>
<feBlend mode="normal" in="SourceGraphic" in2="effect1_dropShadow_1105_2" result="shape"/>
</filter>
<filter id="filter10_d_1105_2" x="182" y="362" width="95" height="95" filterUnits="userSpaceOnUse" color-interpolation-filters="sRGB">
<feFlood flood-opacity="0" result="BackgroundImageFix"/>
<feColorMatrix in="SourceAlpha" type="matrix" values="0 0 0 0 0 0 0 0 0 0 0 0 0 0 0 0 0 0 127 0" result="hardAlpha"/>
<feOffset dy="4"/>
<feGaussianBlur stdDeviation="5"/>
<feComposite in2="hardAlpha" operator="out"/>
<feColorMatrix type="matrix" values="0 0 0 0 0 0 0 0 0 0 0 0 0 0 0 0 0 0 0.08 0"/>
<feBlend mode="normal" in2="BackgroundImageFix" result="effect1_dropShadow_1105_2"/>
<feBlend mode="normal" in="SourceGraphic" in2="effect1_dropShadow_1105_2" result="shape"/>
</filter>
<linearGradient id="paint0_linear_1105_2" x1="377" y1="32" x2="377" y2="732" gradientUnits="userSpaceOnUse">
<stop stop-color="#27CA54"/>
<stop offset="1" stop-color="#27CA54" stop-opacity="0.1"/>
</linearGradient>
<linearGradient id="paint1_linear_1105_2" x1="377" y1="132" x2="377" y2="632" gradientUnits="userSpaceOnUse">
<stop stop-color="#27CA54"/>
<stop offset="1" stop-color="#27CA54" stop-opacity="0.1"/>
</linearGradient>
<linearGradient id="paint2_linear_1105_2" x1="377" y1="232" x2="377" y2="532" gradientUnits="userSpaceOnUse">
<stop stop-color="#27CA54"/>
<stop offset="1" stop-color="#27CA54" stop-opacity="0.1"/>
</linearGradient>
<linearGradient id="paint3_linear_1105_2" x1="438.144" y1="610.158" x2="456.139" y2="628.153" gradientUnits="userSpaceOnUse">
<stop stop-color="#010101" stop-opacity="0.1"/>
<stop offset="1" stop-color="#010101" stop-opacity="0"/>
</linearGradient>
<linearGradient id="paint4_linear_1105_2" x1="422.195" y1="605.292" x2="463.799" y2="624.691" gradientUnits="userSpaceOnUse">
<stop stop-color="white" stop-opacity="0.2"/>
<stop offset="1" stop-color="white" stop-opacity="0"/>
</linearGradient>
<clipPath id="clip0_1105_2">
<rect width="732" height="732" fill="white"/>
</clipPath>
<clipPath id="clip1_1105_2">
<rect width="50" height="50" fill="white" transform="translate(418 590)"/>
</clipPath>
<clipPath id="clip2_1105_2">
<rect width="33" height="50" fill="white" transform="translate(197 665)"/>
</clipPath>
<clipPath id="clip3_1105_2">
<rect width="50" height="50" fill="white" transform="translate(627 141)"/>
</clipPath>
<clipPath id="clip4_1105_2">
<rect width="50" height="50" fill="white" transform="translate(139 500)"/>
</clipPath>
</defs>
</svg>
