<svg width="30" height="20" viewBox="0 0 30 20" fill="none" xmlns="http://www.w3.org/2000/svg">
<path d="M29.4827 19.8H0.517265C0.231621 19.8 0 19.5667 0 19.2789V0.521076C0 0.233327 0.231621 0 0.517265 0H29.4827C29.7684 0 30 0.233327 30 0.521076V19.2789C29.9999 19.5667 29.7683 19.8 29.4827 19.8Z" fill="#73AF00"/>
<path d="M14.7311 2.77024L3.82939 9.45492C3.49828 9.65791 3.49828 10.142 3.82939 10.3451L14.7311 17.0298C14.8963 17.1311 15.1037 17.1311 15.269 17.0298L26.1707 10.3451C26.5018 10.1422 26.5018 9.65803 26.1707 9.45498L15.269 2.77024C15.1038 2.66895 14.8963 2.66895 14.7311 2.77024Z" fill="#FFE15A"/>
<path d="M14.9999 14.0684C17.2852 14.0684 19.1378 12.2021 19.1378 9.9C19.1378 7.59787 17.2852 5.73163 14.9999 5.73163C12.7147 5.73163 10.8621 7.59787 10.8621 9.9C10.8621 12.2021 12.7147 14.0684 14.9999 14.0684Z" fill="#41479B"/>
<path d="M11.4493 7.76759C11.254 8.09683 11.1033 8.45464 11.0037 8.83459C13.2975 8.6607 16.6909 9.30714 18.8506 11.4183C18.9916 11.0558 19.0847 10.6697 19.1196 10.266C16.8895 8.37525 13.8063 7.70289 11.4493 7.76759Z" fill="#F5F5F5"/>
<path d="M15.1716 11.3225L15.2818 11.6553L15.63 11.658C15.6751 11.6583 15.6938 11.7163 15.6576 11.7433L15.3774 11.9517L15.4825 12.2861C15.4961 12.3294 15.4471 12.3653 15.4105 12.3388L15.1272 12.1348L14.8439 12.3388C14.8072 12.3653 14.7583 12.3294 14.7719 12.2861L14.8769 11.9517L14.5968 11.7433C14.5605 11.7163 14.5792 11.6583 14.6243 11.658L14.9725 11.6553L15.0826 11.3225C15.0969 11.2794 15.1573 11.2794 15.1716 11.3225Z" fill="#F5F5F5"/>
<path d="M16.5248 12.1834L16.5722 12.3266L16.7221 12.3278C16.7415 12.3279 16.7496 12.3529 16.7339 12.3645L16.6134 12.4542L16.6585 12.5982C16.6644 12.6168 16.6434 12.6322 16.6275 12.6208L16.5056 12.533L16.3837 12.6208C16.3679 12.6322 16.3468 12.6168 16.3527 12.5982L16.3978 12.4542L16.2773 12.3645C16.2617 12.353 16.2697 12.328 16.2891 12.3278L16.439 12.3266L16.4864 12.1834C16.4926 12.1648 16.5187 12.1648 16.5248 12.1834Z" fill="#F5F5F5"/>
<path d="M14.5861 10.6903L14.6335 10.8335L14.7834 10.8347C14.8028 10.8348 14.8109 10.8598 14.7952 10.8714L14.6746 10.961L14.7198 11.105C14.7257 11.1237 14.7046 11.1391 14.6888 11.1277L14.5669 11.0399L14.445 11.1277C14.4292 11.1391 14.4081 11.1237 14.414 11.105L14.4591 10.961L14.3385 10.8714C14.323 10.8598 14.331 10.8348 14.3504 10.8347L14.5003 10.8335L14.5477 10.6903C14.5539 10.6718 14.58 10.6718 14.5861 10.6903Z" fill="#F5F5F5"/>
<path d="M11.9604 10.5167L12.0078 10.6599L12.1577 10.6611C12.177 10.6612 12.1851 10.6862 12.1695 10.6978L12.0489 10.7875L12.0941 10.9314C12.0999 10.9501 12.0789 10.9655 12.0631 10.9541L11.9412 10.8663L11.8192 10.9541C11.8035 10.9655 11.7824 10.9501 11.7882 10.9314L11.8334 10.7875L11.7128 10.6978C11.6972 10.6862 11.7053 10.6613 11.7246 10.6611L11.8745 10.6599L11.9219 10.5167C11.9282 10.4982 11.9542 10.4982 11.9604 10.5167Z" fill="#F5F5F5"/>
<path d="M14.1571 12.1339L14.2046 12.2771L14.3544 12.2783C14.3738 12.2784 14.3819 12.3034 14.3663 12.315L14.2457 12.4047L14.2909 12.5486C14.2967 12.5673 14.2757 12.5827 14.2599 12.5713L14.1379 12.4835L14.016 12.5713C14.0002 12.5827 13.9791 12.5673 13.985 12.5486L14.0302 12.4047L13.9096 12.315C13.894 12.3034 13.902 12.2785 13.9214 12.2783L14.0713 12.2771L14.1187 12.1339C14.125 12.1154 14.1511 12.1154 14.1571 12.1339Z" fill="#F5F5F5"/>
<path d="M12.9486 10.4168L12.9874 10.5339L13.11 10.5349C13.1258 10.535 13.1324 10.5554 13.1197 10.5649L13.0211 10.6382L13.0581 10.7559C13.0629 10.7712 13.0456 10.7838 13.0327 10.7745L12.933 10.7027L12.8332 10.7745C12.8203 10.7838 12.8031 10.7712 12.8079 10.7559L12.8448 10.6382L12.7462 10.5649C12.7335 10.5554 12.74 10.535 12.7559 10.5349L12.8785 10.5339L12.9173 10.4168C12.9223 10.4016 12.9436 10.4016 12.9486 10.4168Z" fill="#F5F5F5"/>
<path d="M16.63 7.999L16.6785 8.1455L16.8318 8.14668C16.8516 8.1468 16.8598 8.17235 16.8438 8.18422L16.7206 8.27594L16.7668 8.42321C16.7728 8.44228 16.7512 8.45803 16.7351 8.44641L16.6103 8.35657L16.4856 8.44641C16.4694 8.45809 16.4479 8.44222 16.4539 8.42321L16.5001 8.27594L16.3768 8.18422C16.3609 8.17235 16.3691 8.14685 16.3889 8.14668L16.5422 8.1455L16.5907 7.999C16.597 7.97999 16.6237 7.97999 16.63 7.999Z" fill="#F5F5F5"/>
<path d="M12.1295 9.70028L12.1683 9.81739L12.2909 9.81839C12.3067 9.81851 12.3133 9.83893 12.3006 9.84843L12.202 9.92174L12.239 10.0394C12.2438 10.0547 12.2265 10.0673 12.2136 10.058L12.1139 9.9862L12.0141 10.058C12.0012 10.0673 11.984 10.0547 11.9888 10.0394L12.0257 9.92174L11.9271 9.84843C11.9144 9.83893 11.9209 9.81857 11.9369 9.81839L12.0594 9.81739L12.0982 9.70028C12.1032 9.68511 12.1245 9.68511 12.1295 9.70028Z" fill="#F5F5F5"/>
<path d="M12.7213 11.3509L12.78 11.5283L12.9656 11.5298C12.9897 11.5299 12.9996 11.5608 12.9803 11.5752L12.8309 11.6863L12.8869 11.8646C12.8942 11.8876 12.8681 11.9068 12.8486 11.8927L12.6975 11.7839L12.5465 11.8927C12.527 11.9067 12.5008 11.8876 12.5081 11.8646L12.5641 11.6863L12.4147 11.5752C12.3954 11.5608 12.4054 11.5299 12.4294 11.5298L12.615 11.5283L12.6737 11.3509C12.6815 11.328 12.7137 11.328 12.7213 11.3509Z" fill="#F5F5F5"/>
<path d="M17.2794 12.2206L17.3163 12.3322L17.433 12.3331C17.4482 12.3332 17.4544 12.3527 17.4423 12.3617L17.3484 12.4316L17.3836 12.5437C17.3882 12.5582 17.3718 12.5702 17.3594 12.5614L17.2644 12.493L17.1694 12.5614C17.1571 12.5702 17.1407 12.5582 17.1452 12.5437L17.1804 12.4316L17.0865 12.3617C17.0743 12.3527 17.0806 12.3332 17.0957 12.3331L17.2125 12.3322L17.2494 12.2206C17.2543 12.2062 17.2746 12.2062 17.2794 12.2206Z" fill="#F5F5F5"/>
<path d="M17.6879 11.3688L17.7353 11.512L17.8852 11.5132C17.9046 11.5133 17.9127 11.5383 17.897 11.5499L17.7764 11.6396L17.8216 11.7835C17.8275 11.8022 17.8065 11.8176 17.7906 11.8062L17.6687 11.7184L17.5468 11.8062C17.531 11.8176 17.5099 11.8022 17.5158 11.7835L17.5609 11.6396L17.4404 11.5499C17.4248 11.5383 17.4328 11.5134 17.4522 11.5132L17.6021 11.512L17.6495 11.3688C17.6557 11.3502 17.6818 11.3502 17.6879 11.3688Z" fill="#F5F5F5"/>
</svg>
