<svg width="30" height="20" viewBox="0 0 30 20" fill="none" xmlns="http://www.w3.org/2000/svg">
<path d="M30 0H0V19.8H30V0Z" fill="#F0F0F0"/>
<path d="M30 2.47473H0V4.94949H30V2.47473Z" fill="#D80027"/>
<path d="M30 7.42487H0V9.89963H30V7.42487Z" fill="#D80027"/>
<path d="M30 12.3744H0V14.8491H30V12.3744Z" fill="#D80027"/>
<path d="M30 17.3246H0V19.7993H30V17.3246Z" fill="#D80027"/>
<path d="M15 0H0V10.6616H15V0Z" fill="#2E52B2"/>
<path d="M5.84916 4.36755L5.60758 5.10332H4.82617L5.45846 5.5578L5.21687 6.29351L5.84916 5.83902L6.48104 6.29351L6.23951 5.5578L6.8718 5.10332H6.09033L5.84916 4.36755Z" fill="#F0F0F0"/>
<path d="M6.09033 7.75847L5.84916 7.02277L5.60758 7.75847H4.82617L5.45846 8.21301L5.21687 8.94872L5.84916 8.49417L6.48104 8.94872L6.23951 8.21301L6.8718 7.75847H6.09033Z" fill="#F0F0F0"/>
<path d="M2.7879 7.75847L2.54667 7.02277L2.30509 7.75847H1.52368L2.15597 8.21301L1.91438 8.94872L2.54667 8.49417L3.1786 8.94872L2.93708 8.21301L3.56925 7.75847H2.7879Z" fill="#F0F0F0"/>
<path d="M2.54667 4.36755L2.30509 5.10332H1.52368L2.15597 5.5578L1.91438 6.29351L2.54667 5.83902L3.1786 6.29351L2.93708 5.5578L3.56925 5.10332H2.7879L2.54667 4.36755Z" fill="#F0F0F0"/>
<path d="M5.84916 1.71234L5.60758 2.44816H4.82617L5.45846 2.90271L5.21687 3.63841L5.84916 3.18387L6.48104 3.63841L6.23951 2.90271L6.8718 2.44816H6.09033L5.84916 1.71234Z" fill="#F0F0F0"/>
<path d="M2.54667 1.71234L2.30509 2.44816H1.52368L2.15597 2.90271L1.91438 3.63841L2.54667 3.18387L3.1786 3.63841L2.93708 2.90271L3.56925 2.44816H2.7879L2.54667 1.71234Z" fill="#F0F0F0"/>
<path d="M9.15159 4.36755L8.91007 5.10332H8.12866L8.76089 5.5578L8.51942 6.29351L9.15159 5.83902L9.78358 6.29351L9.542 5.5578L10.1743 5.10332H9.39288L9.15159 4.36755Z" fill="#F0F0F0"/>
<path d="M9.39288 7.75847L9.15159 7.02277L8.91007 7.75847H8.12866L8.76089 8.21301L8.51942 8.94872L9.15159 8.49417L9.78358 8.94872L9.542 8.21301L10.1743 7.75847H9.39288Z" fill="#F0F0F0"/>
<path d="M12.6953 7.75847L12.4541 7.02277L12.2125 7.75847H11.4312L12.0633 8.21301L11.8218 8.94872L12.4541 8.49417L13.086 8.94872L12.8444 8.21301L13.4767 7.75847H12.6953Z" fill="#F0F0F0"/>
<path d="M12.4541 4.36755L12.2125 5.10332H11.4312L12.0633 5.5578L11.8218 6.29351L12.4541 5.83902L13.086 6.29351L12.8444 5.5578L13.4767 5.10332H12.6953L12.4541 4.36755Z" fill="#F0F0F0"/>
<path d="M9.15159 1.71234L8.91007 2.44816H8.12866L8.76089 2.90271L8.51942 3.63841L9.15159 3.18387L9.78358 3.63841L9.542 2.90271L10.1743 2.44816H9.39288L9.15159 1.71234Z" fill="#F0F0F0"/>
<path d="M12.4541 1.71234L12.2125 2.44816H11.4312L12.0633 2.90271L11.8218 3.63841L12.4541 3.18387L13.086 3.63841L12.8444 2.90271L13.4767 2.44816H12.6953L12.4541 1.71234Z" fill="#F0F0F0"/>
</svg>
